<svg fill="none" height="148" viewBox="0 0 112 148" width="112" xmlns="http://www.w3.org/2000/svg" xmlns:xlink="http://www.w3.org/1999/xlink"><filter id="a" color-interpolation-filters="sRGB" filterUnits="userSpaceOnUse" height="144" width="112" x="0" y="4"><feFlood flood-opacity="0" result="BackgroundImageFix"/><feColorMatrix in="SourceAlpha" type="matrix" values="0 0 0 0 0 0 0 0 0 0 0 0 0 0 0 0 0 0 127 0"/><feOffset dx="4" dy="8"/><feGaussianBlur stdDeviation="12"/><feColorMatrix type="matrix" values="0 0 0 0 0 0 0 0 0 0.0375833 0 0 0 0 0.170833 0 0 0 0.075 0"/><feBlend in2="BackgroundImageFix" mode="multiply" result="effect1_dropShadow"/><feBlend in="SourceGraphic" in2="effect1_dropShadow" mode="normal" result="shape"/></filter><clipPath id="b"><path d="m32 32h39v39h-39z"/></clipPath><g filter="url(#a)"><path d="m60.4534 90.9196c1.6988-5.0403 6.0022-8.6095 10.4521-11.5231 8.5624-5.6065 13.0945-15.7786 13.0945-27.3965 0-17.6732-14.3268-32-32-32s-32 14.3268-32 32c0 11.6179 4.5321 21.79 13.0945 27.3965 4.4499 2.9136 8.7533 6.4828 10.4521 11.5231l8.4534 25.0804z" fill="#06f"/></g><g clip-path="url(#b)"><path clip-rule="evenodd" d="m51.3359 36.3338c.1018-.0584.2264-.0584.3282 0l9.5454 5.4766c.0077.004.0152.0083.0225.0129l9.5992 5.5076c.1045.0599.169.1722.1688.2938v.003.0034 10.9607c0 .1218-.0649.2342-.1697.2939l-9.5497 5.441c-.1017.0579-.2258.0577-.3273-.0005l-9.4533-5.4229-9.4533 5.4229c-.1015.0582-.2256.0584-.3273.0005l-9.5497-5.4403c-.1048-.0597-.1697-.1721-.1697-.2939v-10.9601c0-.0012 0-.0025 0-.0037 0-.0011 0-.0022 0-.0033-.0002-.1216.0643-.2339.1688-.2939l9.594-5.5049c.0107-.0069.0218-.0133.0331-.0189zm-9.3919 6.164-8.9339 5.1261 8.8726 5.0551 8.9019-5.1079zm9.2231 5.6289-8.9515 5.1364v10.1912l8.9515-5.1351zm.6658 10.1925v-10.1925l8.9515 5.1364v10.1912zm9.6174 5.137 8.8838-5.0616v-10.1937l-8.8838 5.0628zm-.3324-10.7768 8.872-5.0562-8.9336-5.1256-8.8409 5.0735zm-9.6179-5.4729-8.8806-5.0963 8.8806-5.0955 8.8809 5.0954zm-9.9503 16.2498-8.8838-5.061v-10.1938l8.8838 5.0616z" fill="#fff" fill-rule="evenodd"/></g></svg>