<svg id="Layer_1" data-name="Layer 1" xmlns="http://www.w3.org/2000/svg" viewBox="0 0 500 500"><title>up-logomark-standard-white</title><path d="M190.075,0,130.754,30.307V90.921L71.432,60.614,12.111,90.921V348.34l59.321,30.307,177.94-90.934L249.419,30.3Zm-59.31,227.124,44.616,22.832-44.616,22.783ZM26.755,98.4,71.432,75.578,116.11,98.4,71.432,121.228ZM234.717,234.657v45.66L190.1,303.177v-.064l-118.608,60.6-.06-45.695L71.48,318l-.048-181.8,44.678-22.825V295.21l73.978-37.768L190.04,75.654l44.677-22.825ZM190.04,60.557,145.363,37.732,190.04,14.907l44.677,22.825Z" fill="#fff"/><path d="M368,151.517l-59.291,30.321.007,75.581,44.6,22.805-103.9,53.1L249.331,469.6,309.067,500,368,469.546l.052-60.587,119.84-61.3V212.725Zm-44.692,37.79,44.712-22.843L472.035,219.62l-44.621,22.873ZM472.089,340.761l-118.771,60.7v60.579l-44.58,22.824V378.721L427.4,318.052V257.413l44.69-22.756Z" fill="#fff"/></svg>