<svg xmlns="http://www.w3.org/2000/svg" width="52" height="52" viewBox="0 0 52 52" fill="none">
  <path fill-rule="evenodd" clip-rule="evenodd" d="M23.9224 4.85983C28.9569 4.08421 34.1028 5.13697 38.4283 7.82748C42.7537 10.518 45.9728 14.6684 47.5026 19.5272C49.0324 24.386 48.7719 29.632 46.7681 34.3153C44.7644 38.9986 41.1499 42.8096 36.5791 45.0583C32.0084 47.307 26.7835 47.8446 21.8506 46.574C16.9177 45.3033 12.6028 42.3083 9.68723 38.1312C9.34918 37.6469 9.46776 36.9802 9.95208 36.6421C10.4364 36.3041 11.1031 36.4227 11.4411 36.907C14.0642 40.665 17.9461 43.3595 22.3841 44.5027C26.8221 45.6459 31.5228 45.1621 35.6349 43.1391C39.7471 41.116 42.9989 37.6874 44.8016 33.474C46.6044 29.2605 46.8388 24.5409 45.4624 20.1696C44.0861 15.7983 41.19 12.0643 37.2985 9.64369C33.4071 7.22311 28.7775 6.27598 24.2481 6.97377C19.7186 7.67157 15.5888 9.96818 12.6063 13.4477C9.62379 16.9273 7.98583 21.3598 7.98896 25.9427C7.98937 26.5333 7.51089 27.0125 6.92025 27.0129C6.32961 27.0133 5.85048 26.5348 5.85008 25.9442C5.84659 20.8502 7.66722 15.9234 10.9823 12.0558C14.2974 8.18817 18.8878 5.63544 23.9224 4.85983Z" fill="#107A84"/>
  <path fill-rule="evenodd" clip-rule="evenodd" d="M26.9053 16.3847C27.4959 16.3847 27.9747 16.8635 27.9747 17.4542V25.8771C27.9747 26.4678 27.4959 26.9466 26.9053 26.9466H20.9292C20.3386 26.9466 19.8598 26.4678 19.8598 25.8771C19.8598 25.2865 20.3386 24.8077 20.9292 24.8077H25.8358V17.4542C25.8358 16.8635 26.3147 16.3847 26.9053 16.3847Z" fill="#107A84"/>
  <path fill-rule="evenodd" clip-rule="evenodd" d="M3.53188 20.8118C4.04005 20.5108 4.69603 20.6787 4.99706 21.1869L7.06677 24.6808L10.714 21.5783C11.1639 21.1956 11.8388 21.2501 12.2215 21.6999C12.6042 22.1498 12.5497 22.8248 12.0998 23.2075L8.049 26.6533C8.04847 26.6538 8.04953 26.6529 8.049 26.6533C7.70755 26.9448 7.26288 27.0903 6.81525 27.0557C6.36693 27.0209 5.95075 26.8096 5.6582 26.4681C5.61791 26.4211 5.58179 26.3706 5.55023 26.3174L3.15681 22.277C2.85579 21.7688 3.02371 21.1129 3.53188 20.8118Z" fill="#107A84"/>
</svg>