<svg width="16" height="16" viewBox="0 0 16 16" fill="none" xmlns="http://www.w3.org/2000/svg">
<path fill-rule="evenodd" clip-rule="evenodd" d="M7.99998 1.99999C4.68627 1.99999 1.99998 4.68629 1.99998 8C1.99998 11.3137 4.68627 14 7.99998 14C11.3137 14 14 11.3137 14 8C14 4.68629 11.3137 1.99999 7.99998 1.99999ZM1.33331 8C1.33331 4.3181 4.31808 1.33333 7.99998 1.33333C11.6819 1.33333 14.6666 4.3181 14.6666 8C14.6666 11.6819 11.6819 14.6667 7.99998 14.6667C4.31808 14.6667 1.33331 11.6819 1.33331 8Z" fill="#0066FF"/>
<path fill-rule="evenodd" clip-rule="evenodd" d="M7.99998 3.66666C8.18407 3.66666 8.33331 3.8159 8.33331 3.99999V8C8.33331 8.18409 8.18407 8.33333 7.99998 8.33333C7.81589 8.33333 7.66665 8.18409 7.66665 8V3.99999C7.66665 3.8159 7.81589 3.66666 7.99998 3.66666Z" fill="#0066FF"/>
<path fill-rule="evenodd" clip-rule="evenodd" d="M7.76428 7.76429C7.89445 7.63412 8.10551 7.63412 8.23568 7.76429L10.315 9.84363C10.4452 9.9738 10.4452 10.1849 10.315 10.315C10.1848 10.4452 9.97379 10.4452 9.84361 10.315L7.76428 8.2357C7.6341 8.10552 7.6341 7.89447 7.76428 7.76429Z" fill="#0066FF"/>
</svg>
