<svg xmlns="http://www.w3.org/2000/svg" width="52" height="52" viewBox="0 0 52 52" fill="none">
  <path fill-rule="evenodd" clip-rule="evenodd" d="M18.3914 5.93995C20.7085 4.54971 23.4679 3.86255 26 3.86255C28.7546 3.86255 31.2984 4.5539 33.6085 5.93995C35.9315 7.33376 37.7791 9.41555 38.9343 11.7259C40.0695 13.9965 40.7753 16.7609 40.5404 19.3554C40.3167 22.0342 39.6374 24.6151 37.9664 26.7636L37.9501 26.7844L37.9485 26.7859L37.9417 26.7942L37.9126 26.8304C37.8865 26.8629 37.8473 26.9119 37.7969 26.9759C37.6962 27.1038 37.551 27.2909 37.3762 27.524C37.0257 27.9913 36.5603 28.638 36.0968 29.3589C35.6311 30.0833 35.1802 30.8631 34.849 31.599C34.5072 32.3586 34.3417 32.9668 34.3416 33.3791L34.3423 41.9348C34.3423 42.263 34.1916 42.573 33.9335 42.7757L27.9889 47.4465C27.2574 48.1412 26.4483 48.1392 25.8642 48.1377C25.8379 48.1376 25.8121 48.1376 25.7867 48.1376C25.7762 48.1376 25.7655 48.1376 25.7546 48.1376C25.3124 48.138 24.521 48.1388 23.7906 47.4391L18.0528 42.7639C17.8036 42.5608 17.6589 42.2563 17.6589 41.9348L17.6583 33.3794C17.6583 32.9671 17.4928 32.3587 17.151 31.599C16.8198 30.8631 16.3688 30.0833 15.9032 29.3589C15.4397 28.638 14.9743 27.9913 14.6238 27.524C14.449 27.2909 14.3038 27.1038 14.203 26.9759C14.1527 26.9119 14.1135 26.8629 14.0874 26.8304L14.0582 26.7942L14.0514 26.7859L14.0501 26.7842C14.0173 26.7441 13.9874 26.7017 13.9607 26.6572C12.6104 24.4066 11.691 21.9005 11.46 19.3594C11.2246 16.7704 11.9262 14.012 13.0569 11.7436C14.2318 9.16932 16.1061 7.31113 18.3914 5.93995ZM19.7978 38.7265V40.8653H32.2034V38.7265H19.7978ZM32.2032 36.5876L32.2029 34.4487H19.7974L19.7977 36.5876H32.2032ZM19.6616 32.3098C19.5342 31.7694 19.3294 31.2277 19.1015 30.7213C18.7108 29.853 18.1992 28.9752 17.7024 28.2023C17.2034 27.4261 16.7063 26.7359 16.3349 26.2407C16.1488 25.9925 15.9932 25.792 15.8834 25.6526C15.8299 25.5847 15.7872 25.5312 15.7571 25.4936C14.5622 23.484 13.7848 21.3077 13.5901 19.1657C13.3982 17.0558 13.9757 14.6886 14.9788 12.6825C14.9847 12.6707 14.9904 12.6588 14.9958 12.6468C15.9603 10.5249 17.5048 8.96631 19.4919 7.77403C21.4526 6.59761 23.8266 6.00144 26 6.00144C28.3787 6.00144 30.5404 6.59342 32.5081 7.77403C34.4628 8.94689 36.0375 10.7151 37.0212 12.6825C38.0242 14.6886 38.6017 17.0558 38.4099 19.1657L38.4092 19.1737C38.2051 21.6225 37.6027 23.7425 36.285 25.4414L36.2805 25.4469L36.2453 25.4906C36.215 25.5283 36.1715 25.5828 36.1166 25.6526C36.0067 25.792 35.8512 25.9925 35.6651 26.2407C35.2937 26.7359 34.7966 27.4261 34.2976 28.2023C33.8007 28.9752 33.2892 29.853 32.8985 30.7213C32.6706 31.2277 32.4658 31.7694 32.3384 32.3098H19.6616ZM30.1807 43.0042H21.7339L25.1789 45.8113C25.207 45.8342 25.234 45.8585 25.2596 45.8841C25.3023 45.9268 25.3321 45.9463 25.3485 45.9556C25.3646 45.9646 25.3811 45.9713 25.4044 45.9771C25.4702 45.9936 25.553 45.9987 25.7867 45.9987C25.9534 45.9987 26.0731 45.9984 26.1791 45.9933C26.2816 45.9883 26.3433 45.9796 26.3835 45.9707C26.4192 45.9628 26.4364 45.9549 26.4477 45.9488C26.4593 45.9425 26.4854 45.9265 26.5277 45.8841C26.5578 45.854 26.5897 45.8257 26.6232 45.7994L30.1807 43.0042ZM23.6474 9.63759C23.6474 9.04695 24.1262 8.56815 24.7168 8.56815H26.0002C26.5908 8.56815 27.0696 9.04695 27.0696 9.63759C27.0696 10.2282 26.5908 10.707 26.0002 10.707H24.7168C24.1262 10.707 23.6474 10.2282 23.6474 9.63759ZM21.7222 10.707C22.0766 11.1795 21.9808 11.8498 21.5083 12.2042C20.7473 12.7749 20.168 13.3462 19.5486 13.9652C18.6358 15.2746 18.0861 16.9528 18.0861 18.6209C18.0861 19.2115 17.6073 19.6903 17.0166 19.6903C16.426 19.6903 15.9472 19.2115 15.9472 18.6209C15.9472 16.4688 16.6609 14.3273 17.8575 12.6521C17.8917 12.6041 17.9299 12.5591 17.9715 12.5174L17.9866 12.5024C18.6217 11.8672 19.3085 11.1805 20.225 10.4931C20.6975 10.1387 21.3678 10.2345 21.7222 10.707Z" fill="#107A84"/>
</svg>