<svg width="16" height="16" viewBox="0 0 16 16" fill="none" xmlns="http://www.w3.org/2000/svg">
<path fill-rule="evenodd" clip-rule="evenodd" d="M5.62847 1.74749C6.35068 1.31417 7.21073 1.09999 7.99997 1.09999C8.85855 1.09999 9.65145 1.31548 10.3715 1.74749C11.0955 2.18193 11.6714 2.8308 12.0314 3.55092C12.3853 4.25862 12.6053 5.12025 12.5321 5.92892C12.4623 6.76388 12.2506 7.56831 11.7298 8.23797L11.7247 8.24447L11.7242 8.24492L11.7221 8.24753L11.713 8.25879C11.7049 8.26892 11.6926 8.28421 11.677 8.30414C11.6456 8.34401 11.6003 8.40234 11.5458 8.47499C11.4366 8.62064 11.2915 8.82219 11.147 9.04691C11.0019 9.27268 10.8613 9.51574 10.7581 9.74511C10.6516 9.9819 10.6 10.1715 10.6 10.3C10.6 10.4841 10.4507 10.6333 10.2666 10.6333C10.0825 10.6333 9.93331 10.4841 9.93331 10.3C9.93331 10.0285 10.0317 9.73475 10.1502 9.47154C10.2719 9.20091 10.4314 8.9273 10.5862 8.68641C10.7418 8.44446 10.8967 8.22934 11.0125 8.07499C11.0705 7.99765 11.119 7.93514 11.1532 7.89168C11.1703 7.86994 11.1839 7.85293 11.1933 7.84119L11.2043 7.82759L11.2057 7.82587C11.6164 7.29634 11.8042 6.63556 11.8678 5.87231L11.868 5.86981C11.9278 5.21218 11.7478 4.47433 11.4352 3.84906C11.1286 3.23585 10.6378 2.68472 10.0285 2.31916C9.41517 1.95117 8.7414 1.76666 7.99997 1.76666C7.32255 1.76666 6.5826 1.95248 5.97147 2.31916C5.35211 2.69077 4.87072 3.17655 4.5701 3.83793C4.56839 3.84167 4.56662 3.84538 4.56478 3.84906C4.25215 4.47433 4.07215 5.21218 4.13194 5.86981C4.19263 6.53744 4.43493 7.21576 4.80738 7.84214C4.81678 7.85384 4.83008 7.87051 4.84675 7.89168C4.88097 7.93514 4.92946 7.99765 4.98747 8.07499C5.10324 8.22934 5.25816 8.44446 5.4137 8.68641C5.56856 8.9273 5.728 9.20091 5.84978 9.47154C5.96823 9.73475 6.06664 10.0285 6.06664 10.3C6.06664 10.4841 5.9174 10.6333 5.73331 10.6333C5.54921 10.6333 5.39997 10.4841 5.39997 10.3C5.39997 10.1715 5.34839 9.9819 5.24183 9.74511C5.13862 9.51574 4.99805 9.27268 4.85291 9.04691C4.70845 8.82219 4.56338 8.62064 4.45414 8.47499C4.39965 8.40234 4.35439 8.34401 4.32299 8.30414C4.3073 8.28421 4.29509 8.26892 4.28695 8.25879L4.27786 8.24753L4.27574 8.24492L4.27532 8.2444C4.26509 8.2319 4.25579 8.21867 4.24748 8.20482C3.82658 7.50333 3.54001 6.72221 3.46801 5.93017C3.39465 5.12323 3.61333 4.26344 3.96575 3.55642C4.33196 2.75405 4.91617 2.17487 5.62847 1.74749Z" fill="#0066FF"/>
<path fill-rule="evenodd" clip-rule="evenodd" d="M6.66663 3.23332C6.77708 3.3806 6.74724 3.58953 6.59996 3.69999C6.36278 3.87788 6.1822 4.05593 5.98915 4.24888C5.70464 4.65699 5.53329 5.18006 5.53329 5.69999C5.53329 5.88409 5.38406 6.03332 5.19996 6.03332C5.01587 6.03332 4.86663 5.88409 4.86663 5.69999C4.86663 5.02923 5.08909 4.36172 5.46205 3.83958C5.47272 3.82464 5.48461 3.8106 5.49759 3.79762L5.50229 3.79292C5.70025 3.59496 5.9143 3.3809 6.19996 3.16666C6.34724 3.0562 6.55617 3.08605 6.66663 3.23332Z" fill="#0066FF"/>
<path fill-rule="evenodd" clip-rule="evenodd" d="M7.26661 2.9C7.26661 2.7159 7.41585 2.56667 7.59994 2.56667H7.99994C8.18404 2.56667 8.33328 2.7159 8.33328 2.9C8.33328 3.08409 8.18404 3.23333 7.99994 3.23333H7.59994C7.41585 3.23333 7.26661 3.08409 7.26661 2.9Z" fill="#0066FF"/>
<path fill-rule="evenodd" clip-rule="evenodd" d="M5.39997 10.3C5.39997 10.1159 5.54919 9.96665 5.73329 9.96665H10.2666V10.3L10.6 10.3L10.6 11.6333C10.6 11.8174 10.4507 11.9667 10.2666 11.9667H5.73329C5.54919 11.9667 5.39995 11.8174 5.39995 11.6333L5.39997 10.3ZM9.93329 10.6333H6.06662V11.3H9.93329V10.6333Z" fill="#0066FF"/>
<path fill-rule="evenodd" clip-rule="evenodd" d="M5.39995 11.6333C5.39995 11.4492 5.54919 11.3 5.73329 11.3H10.2666V11.6333H10.6V12.9667C10.6 13.1507 10.4507 13.3 10.2666 13.3H5.73329C5.54919 13.3 5.39995 13.1507 5.39995 12.9667V11.6333ZM9.93329 11.9667H6.06662V12.6333H9.93329V11.9667Z" fill="#0066FF"/>
<path fill-rule="evenodd" clip-rule="evenodd" d="M5.41924 12.8549C5.46651 12.722 5.59227 12.6333 5.73329 12.6333H10.2666C10.4087 12.6333 10.5352 12.7234 10.5816 12.8577C10.6281 12.992 10.5843 13.141 10.4726 13.2288L8.61967 14.6846C8.39167 14.9011 8.1395 14.9005 7.95745 14.9C7.94925 14.9 7.94119 14.9 7.93329 14.9C7.93002 14.9 7.92668 14.9 7.92328 14.9C7.78544 14.9001 7.53879 14.9004 7.31112 14.6823L5.52273 13.2251C5.41341 13.136 5.37197 12.9878 5.41924 12.8549ZM6.67008 13.3L7.74384 14.1749C7.7526 14.182 7.761 14.1896 7.76899 14.1976C7.7823 14.2109 7.7916 14.217 7.79671 14.2199C7.80171 14.2227 7.80687 14.2248 7.81413 14.2266C7.83464 14.2317 7.86043 14.2333 7.93329 14.2333C7.98524 14.2333 8.02254 14.2332 8.05559 14.2316C8.08754 14.2301 8.10677 14.2274 8.11931 14.2246C8.13041 14.2221 8.1358 14.2197 8.13929 14.2178C8.14291 14.2158 8.15105 14.2108 8.16425 14.1976C8.17364 14.1882 8.18357 14.1794 8.19401 14.1712L9.30285 13.3H6.67008Z" fill="#0066FF"/>
</svg>
