<svg xmlns="http://www.w3.org/2000/svg" width="52" height="52" viewBox="0 0 52 52" fill="none">
  <path fill-rule="evenodd" clip-rule="evenodd" d="M24.7387 7.46479C25.2096 6.51173 26.5687 6.51174 27.0397 7.46479L32.4282 18.3691L44.4633 20.1227C45.5159 20.2761 45.9357 21.5698 45.1737 22.3119L36.4625 30.7969L38.5131 42.7898C38.6924 43.8379 37.5923 44.6368 36.6511 44.1421L25.8892 38.4854L15.1273 44.1421C14.1861 44.6368 13.086 43.8379 13.2652 42.7898L15.3159 30.7969L6.60463 22.3119C5.84268 21.5698 6.26248 20.2761 7.31502 20.1227L19.3502 18.3691L24.7387 7.46479ZM25.8892 9.96451L21.0687 19.7194C20.8817 20.0977 20.5207 20.36 20.1032 20.4208L9.33882 21.9893L17.1304 29.5785C17.433 29.8732 17.5712 30.2979 17.5 30.7141L15.6655 41.4428L25.2921 36.3829C25.6659 36.1864 26.1125 36.1864 26.4863 36.3829L36.1129 41.4428L34.2784 30.7141C34.2072 30.2979 34.3454 29.8732 34.6479 29.5785L42.4395 21.9893L31.6752 20.4208C31.2576 20.36 30.8966 20.0977 30.7097 19.7194L25.8892 9.96451Z" fill="#107A84"/>
</svg>