<svg width="16" height="16" viewBox="0 0 16 16" fill="none" xmlns="http://www.w3.org/2000/svg">
<path fill-rule="evenodd" clip-rule="evenodd" d="M7.60688 1.88946C7.75367 1.59241 8.17729 1.59241 8.32409 1.88946L10.0036 5.28819L13.7548 5.83479C14.0829 5.88259 14.2137 6.28582 13.9763 6.51715L11.2611 9.16182L11.9002 12.8999C11.9561 13.2265 11.6132 13.4755 11.3198 13.3213L7.96548 11.5582L4.61113 13.3213C4.31776 13.4755 3.97488 13.2265 4.03074 12.8999L4.66991 9.16182L1.95471 6.51715C1.71722 6.28582 1.84807 5.88259 2.17614 5.83479L5.92735 5.28819L7.60688 1.88946ZM7.96548 2.6686L6.46298 5.70909C6.40471 5.827 6.2922 5.90874 6.16205 5.9277L2.80693 6.41658L5.23548 8.78206C5.32978 8.8739 5.37285 9.00626 5.35067 9.13601L4.77887 12.48L7.77938 10.9029C7.89589 10.8416 8.03508 10.8416 8.15159 10.9029L11.1521 12.48L10.5803 9.13601C10.5581 9.00627 10.6012 8.8739 10.6955 8.78206L13.124 6.41658L9.76891 5.9277C9.63876 5.90874 9.52625 5.827 9.46798 5.70909L7.96548 2.6686Z" fill="#0066FF"/>
</svg>
