<svg xmlns="http://www.w3.org/2000/svg" viewBox="0 0 24 24"><path d="M13.55 19.7l1.5-.281a.366.366 0 0 1 .423.281l.282 1.5m-.515-1.4l-.235.376A3.862 3.862 0 0 1 12 22.1c-2.019 0-3.71-2.254-4.508-5.588l-.188-.8A24.816 24.816 0 0 1 6.928 12 19.476 19.476 0 0 1 7.3 8.29l.188-.8C8.29 4.158 9.981 1.9 12 1.9s3.71 2.254 4.508 5.588l.188.8A24.816 24.816 0 0 1 17.072 12a19.476 19.476 0 0 1-.376 3.71l-.188.8a6.556 6.556 0 0 1-.423 1.362M4.3 10.45l.281-1.5a.324.324 0 0 0-.281-.425l-1.5-.282m1.409.517l-.376.235A3.862 3.862 0 0 0 1.9 12c0 2.019 2.254 3.71 5.588 4.508l.8.188a24.816 24.816 0 0 0 3.71.376 19.476 19.476 0 0 0 3.71-.376l.8-.188C19.842 15.71 22.1 14.019 22.1 12s-2.254-3.71-5.588-4.508l-.8-.188A24.816 24.816 0 0 0 12 6.928a19.476 19.476 0 0 0-3.71.372l-.8.188a6.556 6.556 0 0 0-1.362.423" fill="none" stroke="currentColor" stroke-linecap="round" stroke-linejoin="round" stroke-width="1.5"/></svg>