<svg xmlns="http://www.w3.org/2000/svg" viewBox="0 0 24 24"><path fill="none" stroke="currentColor" stroke-linecap="round" stroke-linejoin="round" stroke-width="1.5" d="M12.084 17.662V5.429m0 0l-1.881-1.881m1.881 1.881l1.881-1.881m-1.881 14.114l1.881 1.881m-1.881-1.881l-1.881 1.881"/><g fill="none" stroke="currentColor" stroke-linecap="round" stroke-linejoin="round" stroke-width="1.5"><path d="M5.967 11.546h12.234m0 0l1.88-1.881m-1.88 1.881l1.88 1.88m-14.114-1.88l-1.881 1.88m1.881-1.88L4.086 9.665"/></g><g fill="none" stroke="currentColor" stroke-linecap="round" stroke-linejoin="round" stroke-width="1.5"><path d="M7.759 15.871l8.65-8.65m0 0v-2.66m0 2.66h2.66m-11.31 8.65v2.66m0-2.66h-2.66m2.66-8.65l8.65 8.65m0 0h2.66m-2.66 0v2.66m-8.65-11.31h-2.66m2.66 0v-2.66"/></g></svg>