<svg xmlns="http://www.w3.org/2000/svg" viewBox="0 0 48 48"><path d="M10.341 17.5a2.259 2.259 0 0 0-1.659.682A2.229 2.229 0 0 0 8 19.813v9.773a2.329 2.329 0 0 0 2.341 2.341 2.222 2.222 0 0 0 1.648-.682 2.279 2.279 0 0 0 .67-1.659v-9.773a2.329 2.329 0 0 0-2.318-2.313zm22.705-5.289a10.017 10.017 0 0 0-3.887-3.489l1.614-2.977a.3.3 0 0 0-.113-.454.315.315 0 0 0-.455.136l-1.636 3a11.394 11.394 0 0 0-9.137 0l-1.636-3a.316.316 0 0 0-.455-.136.3.3 0 0 0-.113.454l1.614 2.977a9.962 9.962 0 0 0-3.909 3.489 8.809 8.809 0 0 0-1.455 4.9H34.5a8.821 8.821 0 0 0-1.454-4.9zm-13.216.841a.852.852 0 0 1-.625.262.814.814 0 0 1-.614-.262.906.906 0 0 1 0-1.25.817.817 0 0 1 .614-.261.884.884 0 0 1 .625 1.511zm9.579 0a.814.814 0 0 1-.613.262.887.887 0 0 1 0-1.773.816.816 0 0 1 .613.261.906.906 0 0 1 0 1.25zM13.568 33.063a2.482 2.482 0 0 0 2.5 2.5h1.682l.023 5.16a2.259 2.259 0 0 0 .681 1.659 2.233 2.233 0 0 0 1.637.682 2.327 2.327 0 0 0 2.34-2.341v-5.16h3.137v5.16a2.341 2.341 0 1 0 4.681 0v-5.16h1.705a2.391 2.391 0 0 0 1.75-.726 2.416 2.416 0 0 0 .727-1.773V17.927H13.568zM37.659 17.5a2.252 2.252 0 0 0-1.636.671 2.224 2.224 0 0 0-.682 1.647v9.773a2.255 2.255 0 0 0 .682 1.659 2.231 2.231 0 0 0 1.636.682A2.329 2.329 0 0 0 40 29.586v-9.773a2.22 2.22 0 0 0-.682-1.647 2.276 2.276 0 0 0-1.659-.666z" fill="currentColor"/></svg>