<svg xmlns="http://www.w3.org/2000/svg" viewBox="0 0 48 48"><path d="M34.727 24.187a8.889 8.889 0 0 1 4.242-7.487 9.177 9.177 0 0 0-7.186-3.894c-3.06-.31-5.971 1.8-7.525 1.8s-3.946-1.755-6.484-1.709a9.614 9.614 0 0 0-8.129 4.933c-3.465 6.013-.887 14.923 2.491 19.8 1.65 2.387 3.618 5.069 6.2 4.973 2.488-.1 3.429-1.61 6.438-1.61s3.854 1.61 6.487 1.56c2.678-.049 4.375-2.433 6.014-4.827A21.662 21.662 0 0 0 40 32.137a8.68 8.68 0 0 1-5.273-7.95zM29.778 9.582a8.658 8.658 0 0 0 2.045-6.276 8.814 8.814 0 0 0-5.788 2.976 8.242 8.242 0 0 0-2.087 6.081 7.289 7.289 0 0 0 5.83-2.781z" fill="currentColor"/></svg>