<svg xmlns="http://www.w3.org/2000/svg" viewBox="0 0 24 24"><path d="M3.866 12.347v2.669A2.734 2.734 0 0 0 6.6 17.749h10.8a2.734 2.734 0 0 0 2.733-2.733V4.5a2.352 2.352 0 0 0-2.35-2.35 2.351 2.351 0 0 0-2.35 2.35M2.5 12.347h19" fill="none" stroke="currentColor" stroke-linecap="round" stroke-linejoin="round" stroke-width="1.5"/><path d="M15.168 4.51h.364a1.822 1.822 0 0 1 1.822 1.822.455.455 0 0 1-.455.455H13.8a.455.455 0 0 1-.455-.455 1.822 1.822 0 0 1 1.823-1.822zM7.812 17.8a2.05 2.05 0 0 1-2.049 2.05m10.425-2.05a2.05 2.05 0 0 0 2.049 2.05" fill="none" stroke="currentColor" stroke-linecap="round" stroke-linejoin="round" stroke-width="1.5"/></svg>