<svg xmlns="http://www.w3.org/2000/svg" viewBox="0 0 48 48"><path fill="currentColor" d="M29.808 13.665h9.481v2.301h-9.481zM43 27.247c0-5.01-2.932-9.185-8.238-9.185-5.158 0-8.665 3.878-8.665 8.962 0 5.27 3.321 8.888 8.665 8.888 4.045 0 6.661-1.818 7.923-5.7h-4.1c-.445 1.447-2.264 2.208-3.674 2.208-2.727 0-4.156-1.6-4.156-4.3h12.208c.018-.279.037-.576.037-.873zm-12.246-2.059a3.634 3.634 0 0 1 3.859-3.619c2.338 0 3.507 1.373 3.711 3.619zm-10.446-2.431a5.009 5.009 0 0 0 3.191-4.88c0-4.657-3.47-5.789-7.478-5.789H5v23.379h11.337c4.249 0 8.238-2.041 8.238-6.791 0-2.932-1.391-5.103-4.267-5.919zm-10.168-6.68h4.824c1.855 0 3.525.52 3.525 2.672 0 1.985-1.3 2.783-3.135 2.783H10.14zM15.632 31.5H10.14v-6.442h5.6c2.264 0 3.693.946 3.693 3.339.003 2.357-1.704 3.103-3.801 3.103z"/></svg>