<svg xmlns="http://www.w3.org/2000/svg" viewBox="0 0 24 24"><circle cx="6.383" cy="16.033" r="4.025" fill="none" stroke="currentColor" stroke-linecap="round" stroke-linejoin="round" stroke-width="1.5"/><path d="M10.408 16.033L9.9 5.81a2.167 2.167 0 0 0-2.276-1.868 2.41 2.41 0 0 0-2.445 1.821L2.493 15" fill="none" stroke="currentColor" stroke-linecap="round" stroke-linejoin="round" stroke-width="1.5"/><circle cx="17.617" cy="16.033" r="4.025" fill="none" stroke="currentColor" stroke-linecap="round" stroke-linejoin="round" stroke-width="1.5"/><path d="M13.592 16.033l.513-10.223a2.167 2.167 0 0 1 2.271-1.868 2.41 2.41 0 0 1 2.445 1.821L21.507 15" fill="none" stroke="currentColor" stroke-linecap="round" stroke-linejoin="round" stroke-width="1.5"/><g fill="none" stroke="currentColor" stroke-linecap="round" stroke-linejoin="round" stroke-width="1.5"><circle cx="17.617" cy="16.033" r="4.025"/><path d="M13.592 16.033l.513-10.223a2.167 2.167 0 0 1 2.271-1.868 2.41 2.41 0 0 1 2.445 1.821L21.507 15"/></g><g fill="none" stroke="currentColor" stroke-linecap="round" stroke-linejoin="round" stroke-width="1.5"><path d="M9.976 7.422h4.048m-3.804 4.863h3.56"/></g></svg>