<svg viewBox="0 0 48 48" xmlns="http://www.w3.org/2000/svg"><g fill="#000111" fill-rule="evenodd"><path d="M24.059 20.241a1.873 1.873 0 0 0-2.036-2.041h-1.486c-.742.05-1.08.43-1.08 1.229v2.915h2.612a1.933 1.933 0 0 0 1.99-2.103zm-1.699 4.776h-1.981c-.634.088-.922.474-.922 1.216V29.7h2.9a2.16 2.16 0 0 0 2.325-2.357 2.17 2.17 0 0 0-2.322-2.326z"/><path d="M35.25 6.379h-22.5a6.771 6.771 0 0 0-6.768 6.766V41.621H35.25a6.772 6.772 0 0 0 6.768-6.766v-21.71a6.771 6.771 0 0 0-6.768-6.766zM22.12 32.624h-5.983V17.173a1.82 1.82 0 0 1 1.755-1.8h4.154c3.268 0 5.38 1.756 5.38 4.48A4.187 4.187 0 0 1 26 23.122l-.458.392.525.3a4.208 4.208 0 0 1 2.033 3.77c0 3.063-2.348 5.04-5.98 5.04zm9.66 0a2.135 2.135 0 1 1 2.132-2.135 2.13 2.13 0 0 1-2.132 2.136z"/></g></svg>