<svg xmlns="http://www.w3.org/2000/svg" viewBox="0 0 24 24"><path d="M12.78 3.5a24.573 24.573 0 0 0 .237 3.039c.084.888.161 1.779.322 2.658.147.8.439 1.587.663 2.371a21.58 21.58 0 0 1 .963 5.1s.156 3.713 0 4.857-.859 1.222-.859 1.222H9.894s-.7-.078-.859-1.222 0-4.855 0-4.857a21.58 21.58 0 0 1 .963-5.1c.224-.784.516-1.568.663-2.371.161-.879.238-1.77.322-2.658A24.573 24.573 0 0 0 11.22 3.5m-.585-2.25h2.73v2.248h-2.73zm.026 7.945h2.678" fill="none" stroke="currentColor" stroke-linecap="round" stroke-linejoin="round" stroke-width="1.5"/></svg>