<svg xmlns="http://www.w3.org/2000/svg" viewBox="0 0 24 24"><path d="M13.989 15.024a7.108 7.108 0 0 1 1.522 5.724c-.2 1.938-1.076 1.99-2.924.51a12.318 12.318 0 0 0-3.527-2.183c-.761-.3-1.489-.43-4.466-.514-1.392-.039-2.078-.742-1.419-2.075a6.61 6.61 0 0 1 3.164-2.822 6.963 6.963 0 0 1 4.9-.395 6.022 6.022 0 0 1 2.75 1.755zM6.61 18.645l-.561-4.838m5.473 6.572l3.785-2.923" fill="none" stroke="currentColor" stroke-linecap="round" stroke-linejoin="round" stroke-width="1.5"/><path d="M14.424 15.569c2.362-1.083 4.1-4.015 4.3-7.536a.628.628 0 0 0-.625-.664H6.713a.627.627 0 0 0-.624.664 10.369 10.369 0 0 0 1.629 5.154" fill="none" stroke="currentColor" stroke-linecap="round" stroke-linejoin="round" stroke-width="1.5"/><path d="M17.635 12.444h.927a2.444 2.444 0 0 0 2.423-2.007c.076-.387.193-1.038-.073-1.372a.663.663 0 0 0-.476-.246c-.645-.033-1.267 0-1.713 0M12.405 1v3.495m2.486-2.666v3.495M9.92 1.829v3.495" fill="none" stroke="currentColor" stroke-linecap="round" stroke-linejoin="round" stroke-width="1.5"/></svg>