<svg xmlns="http://www.w3.org/2000/svg" viewBox="0 0 24 24"><path d="M17.652 4.516a38.3 38.3 0 0 0-11.507-.023l-.152.023v13.362h11.659zM5.993 6.73h11.408M5.993 12.452h11.408M5.993 7.819H3.767v3.376h2.226m11.659 0h2.226V7.819h-2.226" fill="none" stroke="currentColor" stroke-linecap="round" stroke-linejoin="round" stroke-width="1.5"/><path d="M9.4 15.332a.75.75 0 1 1-.753-.753.75.75 0 0 1 .753.753zm6.345 0a.75.75 0 1 1-.753-.753.75.75 0 0 1 .753.753z" fill="currentColor"/><path stroke-width="1.5" stroke="currentColor" stroke-linecap="round" stroke-linejoin="round" fill="none" d="M6.879 17.878h2.714v2.214H6.879zm7.217 0h2.714v2.214h-2.714z"/></svg>