<svg xmlns="http://www.w3.org/2000/svg" viewBox="0 0 24 24"><path d="M21.5 15.569s0 .459-9.34.459-9.66-.459-9.66-.459v-3.522l2.375.918 2.375-.918 2.375.918L12 12.047l2.375.918 2.375-.918 2.375.918 2.375-.918zM4.145 12.683S1.07 6.738 9.687 8.271" fill="none" stroke="currentColor" stroke-linecap="round" stroke-linejoin="round" stroke-width="1.5"/><path d="M7.722 12.014c.4-1.113 1.724-1.589 2.8-1.755 2.4-.37 4.948.077 7.271-.724-.281-.665-.424-1.668-1.275-1.677a44.788 44.788 0 0 0-5.245.192A8.841 8.841 0 0 0 6.83 9.429a2.981 2.981 0 0 0-1.318 2.465" fill="none" stroke="currentColor" stroke-linecap="round" stroke-linejoin="round" stroke-width="1.5"/><path d="M20.076 12.6c.315-1.3-.758-3.288-.758-3.288a24.2 24.2 0 0 1-2.728.536M9.244 8.371a2.038 2.038 0 0 1-.579-1.4 2.554 2.554 0 0 1 2.3-2.295l.583-1.047.618 1.021a2.6 2.6 0 0 1 2.464 2.326 1.936 1.936 0 0 1-.22.889M3.461 15.763A6.027 6.027 0 0 0 5.51 19.15h12.98a4.149 4.149 0 0 0 2.049-3.387" fill="none" stroke="currentColor" stroke-linecap="round" stroke-linejoin="round" stroke-width="1.5"/></svg>