<svg xmlns="http://www.w3.org/2000/svg" viewBox="0 0 24 24"><path d="M18.6 15.4h3a.5.5 0 0 0 .5-.5 4.152 4.152 0 0 0-4.151-4.151h-6.657L9.778 7.1m-1.377 8.301h7.198" fill="none" stroke="currentColor" stroke-linecap="round" stroke-linejoin="round" stroke-width="1.5"/><path d="M17.012 10.75c0-2.293-3.358-3.651-5.651-3.651h-3.29c-1.656 0-4 1.995-4 3.651H2.4a.5.5 0 0 0-.5.5v3.15a1 1 0 0 0 1 1h2.5" fill="none" stroke="currentColor" stroke-linecap="round" stroke-linejoin="round" stroke-width="1.5"/><circle cx="6.901" cy="15.401" r="1.5" fill="none" stroke="currentColor" stroke-linecap="round" stroke-linejoin="round" stroke-width="1.5"/><circle cx="17.099" cy="15.401" r="1.5" fill="none" stroke="currentColor" stroke-linecap="round" stroke-linejoin="round" stroke-width="1.5"/></svg>