<svg xmlns="http://www.w3.org/2000/svg" viewBox="0 0 24 24"><path fill="none" stroke="currentColor" stroke-linecap="round" stroke-linejoin="round" stroke-width="1.5" d="M19.544 20.047H4.361V8.953l7.592-6 7.591 6v11.094z"/><path d="M11.972 16.22a2.148 2.148 0 0 0 0-2.758 2.29 2.29 0 0 1 .243-2.929m2.757 5.687a2.148 2.148 0 0 0 0-2.758 2.29 2.29 0 0 1 .243-2.929M8.972 16.22a2.148 2.148 0 0 0 0-2.758 2.29 2.29 0 0 1 .243-2.929" fill="none" stroke="currentColor" stroke-linecap="round" stroke-linejoin="round" stroke-width="1.5"/><path fill="none" stroke="currentColor" stroke-linecap="round" stroke-linejoin="round" stroke-width="1.5" d="M1.713 10.696l10.24-7.743 10.239 7.743m-4.535-3.357V4"/></svg>