<svg xmlns="http://www.w3.org/2000/svg" viewBox="0 0 24 24"><circle cx="11.879" cy="5.902" r="3.669" fill="none" stroke="currentColor" stroke-linecap="round" stroke-linejoin="round" stroke-width="1.5"/><path d="M9.431 8.689H5.947a1.241 1.241 0 0 0-1.24 1.241v.034a1.24 1.24 0 0 0 1.24 1.24h2.281v9.323a1.24 1.24 0 0 0 1.24 1.24H9.5a1.241 1.241 0 0 0 1.241-1.24V17.24h2.011v3.287A1.241 1.241 0 0 0 14 21.767h.034a1.24 1.24 0 0 0 1.24-1.24V11.2h2.784a1.24 1.24 0 0 0 1.24-1.24v-.03a1.241 1.241 0 0 0-1.24-1.241h-3.794" fill="none" stroke="currentColor" stroke-linecap="round" stroke-linejoin="round" stroke-width="1.5"/></svg>