<svg xmlns="http://www.w3.org/2000/svg" viewBox="0 0 24 24"><path d="M11.311 11.811V9.35H6.389v2.461a2.461 2.461 0 0 0 2.461 2.461 2.461 2.461 0 0 0 2.461-2.461zm1.094-2.461h-1.094v2.15h1.094a1.057 1.057 0 0 0 1.057-1.057v-.037a1.057 1.057 0 0 0-1.057-1.056zm-9.708 9.344h17.228v2.461H2.697zm2.461-2.461h14.767v2.461H5.158zm9.845-11.075h4.922v11.075h-4.922zm4.922-3.692v3.692H5.773a1.846 1.846 0 0 1-1.846-1.846 1.846 1.846 0 0 1 1.846-1.846h14.152zM10.08 5.158v1.846M7.619 5.158v1.846" fill="none" stroke="currentColor" stroke-linecap="round" stroke-linejoin="round" stroke-width="1.5"/></svg>