<svg xmlns="http://www.w3.org/2000/svg" viewBox="0 0 24 24"><path d="M13.763 20.454a1.484 1.484 0 1 0-1.484-1.484 1.483 1.483 0 0 0 1.484 1.484zM12.184 14.6a2.732 2.732 0 1 0-2.731-2.732 2.732 2.732 0 0 0 2.731 2.732zm7.249-.469a1.484 1.484 0 1 0-1.483-1.484 1.483 1.483 0 0 0 1.483 1.484zm-3.09-7.617a1.484 1.484 0 1 0-1.484-1.484 1.485 1.485 0 0 0 1.484 1.484zM7.44 8.6a1.484 1.484 0 1 0-1.484-1.482A1.484 1.484 0 0 0 7.44 8.6zm-2.873 7.147a1.484 1.484 0 1 0-1.484-1.484 1.483 1.483 0 0 0 1.484 1.484zm3.941-7.466l.412.5m4.227 7.446l.228 1.193m-7.249-3.506l1.788-.5m7.711-6.985l-.868 1.747m3.079 4.311l-1.267-.087" fill="none" stroke="currentColor" stroke-linecap="round" stroke-linejoin="round" stroke-width="1.5"/></svg>