<svg xmlns="http://www.w3.org/2000/svg" viewBox="0 0 24 24"><circle cx="12" cy="12" r="9.5" fill="none" stroke="currentColor" stroke-linecap="round" stroke-linejoin="round" stroke-width="1.5"/><path d="M15.161 8.387a2.872 2.872 0 0 0-2.987-2.128 3.17 3.17 0 0 0-2.94 1.431 2.3 2.3 0 0 0 1.021 3.072 10.146 10.146 0 0 0 2.638.742 4.038 4.038 0 0 1 1.907.812 2.669 2.669 0 0 1 .65 2.082c-.2 1.7-1.739 2.4-3.276 2.4a3.555 3.555 0 0 1-3.641-2.756M12 19.019V4.689" fill="none" stroke="currentColor" stroke-linecap="round" stroke-linejoin="round" stroke-width="1.5"/></svg>