<svg xmlns="http://www.w3.org/2000/svg" viewBox="0 0 24 24"><path d="M12.733 2.715a1.358 1.358 0 0 1 1.94.52 1.359 1.359 0 0 0 1.27.733 1.359 1.359 0 0 1 1.42 1.42 1.357 1.357 0 0 0 .733 1.27 1.359 1.359 0 0 1 .52 1.94 1.356 1.356 0 0 0 0 1.466A1.359 1.359 0 0 1 18.1 12a1.355 1.355 0 0 0-.733 1.269 1.358 1.358 0 0 1-1.42 1.42 1.36 1.36 0 0 0-1.27.734 1.359 1.359 0 0 1-1.94.519 1.36 1.36 0 0 0-1.466 0 1.359 1.359 0 0 1-1.94-.519 1.36 1.36 0 0 0-1.27-.734 1.358 1.358 0 0 1-1.42-1.42A1.355 1.355 0 0 0 5.9 12a1.359 1.359 0 0 1-.52-1.94 1.356 1.356 0 0 0 0-1.466 1.359 1.359 0 0 1 .52-1.94 1.357 1.357 0 0 0 .733-1.27 1.359 1.359 0 0 1 1.42-1.42 1.359 1.359 0 0 0 1.27-.733 1.358 1.358 0 0 1 1.94-.52 1.356 1.356 0 0 0 1.47.004z" fill="none" stroke="currentColor" stroke-linecap="round" stroke-linejoin="round" stroke-width="1.5"/><path fill="none" stroke="currentColor" stroke-linecap="round" stroke-linejoin="round" stroke-width="1.5" d="M15.359 14.796V21.5L12 20.313 8.641 21.5v-6.703m1.743-3.02l3.232-4.892"/><circle cx="10" cy="7.331" r="1" fill="currentColor"/><circle cx="14" cy="11.331" r="1" fill="currentColor"/></svg>