<svg xmlns="http://www.w3.org/2000/svg" viewBox="0 0 24 24"><path d="M19 14a7 7 0 0 1-14 0c0-3.864 3.136-11 7-11s7 7.136 7 11z" fill="none" stroke="currentColor" stroke-linecap="round" stroke-linejoin="round" stroke-width="1.5"/><circle cx="12" cy="12.185" r="1.273" fill="none" stroke="currentColor" stroke-linecap="round" stroke-linejoin="round" stroke-width="1.5"/><path d="M11.012 12.984a5.191 5.191 0 0 1-2.423.979c-1.091 0-1.212-3.556 0-3.556a4.052 4.052 0 0 1 2.347 1.085m2.052 1.492a5.191 5.191 0 0 0 2.423.979c1.091 0 1.212-3.556 0-3.556a4.052 4.052 0 0 0-2.347 1.085m-7.658-.305h2.439m8.269-.154h2.398M5.406 13.687h2.439m8.269-.154h2.398M5.648 16.435c1.046 0 1.046 1 2.092 1s1.046-1 2.092-1 1.046 1 2.091 1 1.047-1 2.094-1 1.047 1 2.095 1 1.047-1 2.1-1M7.027 7.1a1.187 1.187 0 0 0 .713.215c1.046 0 1.046-1 2.092-1s1.046 1 2.091 1 1.047-1 2.094-1 1.047 1 2.095 1a1.215 1.215 0 0 0 .818-.292" fill="none" stroke="currentColor" stroke-linecap="round" stroke-linejoin="round" stroke-width="1.5"/></svg>