<svg xmlns="http://www.w3.org/2000/svg" viewBox="0 0 24 24"><rect x="3.893" y="5.001" width="16.213" height="15.167" rx=".5" stroke-width="1.5" stroke="currentColor" stroke-linecap="round" stroke-linejoin="round" fill="none"/><path fill="none" stroke="currentColor" stroke-linecap="round" stroke-linejoin="round" stroke-width="1.5" d="M3.906 8.561h16.201m-3.262-4.73V6.07M7.431 3.831V6.07m4.731 5.057l.9 1.847 2.035.285a.18.18 0 0 1 .1.308l-1.479 1.427.358 2.023a.181.181 0 0 1-.262.191L12 16.242l-1.814.966a.181.181 0 0 1-.262-.191l.358-2.023L8.8 13.567a.18.18 0 0 1 .1-.308l2.035-.285.9-1.847a.18.18 0 0 1 .327 0z"/></svg>