<svg xmlns="http://www.w3.org/2000/svg" viewBox="0 0 24 24"><path d="M16.509 4.064L12 13.11 9.114 18.9a1.868 1.868 0 0 1-2.372.9l-3.014-1.216a.623.623 0 0 1-.321-.862l.966-1.888a.622.622 0 0 1 .909-.226l4.325 2.3" fill="none" stroke="currentColor" stroke-linecap="round" stroke-linejoin="round" stroke-width="1.5"/><path d="M7.491 4.064l7.4 14.836a1.868 1.868 0 0 0 2.372.9l3.014-1.215a.623.623 0 0 0 .321-.862l-.966-1.888a.622.622 0 0 0-.909-.226l-4.325 2.3" fill="none" stroke="currentColor" stroke-linecap="round" stroke-linejoin="round" stroke-width="1.5"/></svg>