<svg xmlns="http://www.w3.org/2000/svg" viewBox="0 0 24 24"><path d="M4.12 16.883V7.117a1.421 1.421 0 0 1 1.421-1.421h1.731v12.608H5.541a1.421 1.421 0 0 1-1.421-1.421zM2.839 8.848H4.12v6.3H2.839a.82.82 0 0 1-.82-.82v-4.66a.82.82 0 0 1 .82-.82zm15.62 9.452h-1.731V5.7h1.731a1.421 1.421 0 0 1 1.421 1.421v9.762a1.421 1.421 0 0 1-1.421 1.417zm2.702-3.148H19.88v-6.3h1.281a.82.82 0 0 1 .82.82v4.66a.82.82 0 0 1-.82.82zM7.272 12h9.456" fill="none" stroke="currentColor" stroke-linecap="round" stroke-linejoin="round" stroke-width="1.5"/></svg>