<svg xmlns="http://www.w3.org/2000/svg" viewBox="0 0 24 24"><path d="M18.683 9.636a3.428 3.428 0 0 1-3.428 3.428c-1.893 0-8.787-2.018-8.787-2.018V8.058s7.422-1.849 8.787-1.849a3.427 3.427 0 0 1 3.428 3.427z" fill="none" stroke="currentColor" stroke-linecap="round" stroke-linejoin="round" stroke-width="1.5"/><circle cx="15.255" cy="9.636" r="1" fill="currentColor"/><path fill="none" stroke="currentColor" stroke-linecap="round" stroke-linejoin="round" stroke-width="1.5" d="M12.575 12.64v5.151h2.79v-4.727m-2.79 1.937h.965M1.317 8.669l.183-.094a1.238 1.238 0 0 1 1.136 0l.181.094.113.059a1.235 1.235 0 0 0 1.238-.059m-2.851 1.999l.182-.094a1.238 1.238 0 0 1 1.136 0l.181.094.113.059a1.238 1.238 0 0 0 1.238-.059"/></svg>