<svg xmlns="http://www.w3.org/2000/svg" viewBox="0 0 24 24"><circle cx="11.832" cy="12.035" r="7.568" fill="none" stroke="currentColor" stroke-linecap="round" stroke-linejoin="round" stroke-width="1.5"/><path d="M14.5 4.967a7.319 7.319 0 1 1-1.322 14.517M8.831 4.967a7.319 7.319 0 1 0 1.322 14.517" fill="none" stroke="currentColor" stroke-linecap="round" stroke-linejoin="round" stroke-width="1.5"/><path d="M14.935 7.712L12.677 9.97a1.748 1.748 0 1 0 2.258-2.258zm-6.135 0l2.256 2.258A1.748 1.748 0 1 1 8.8 7.712zm-2.287 5.757a5.665 5.665 0 0 0 4.824 3.71l.5-.479.5.479a5.669 5.669 0 0 0 4.82-3.71h-2.82l-.5.5-.5-.5h-3l-.5.5-.5-.5zm5.319-9.002s.333-1.929-1.448-1.929" fill="none" stroke="currentColor" stroke-linecap="round" stroke-linejoin="round" stroke-width="1.5"/></svg>