<svg viewBox="0 0 24 24" xmlns="http://www.w3.org/2000/svg"><g stroke="#000" stroke-linecap="round" stroke-width="1.5"><g stroke-miterlimit="10"><path d="m13.36 2.96v17.94"/><path d="m3.78 12.09h2.23"/><path d="m5.17 6.65 1.95 1.08"/><path d="m5.31 17.45 1.95-1.07"/><path d="m9.37 21.4 1.06-1.96"/><path d="m9.1 2.61 1.11 1.93"/><path d="m15.21 5.53-1.86 1.93"/><path d="m15.21 18.42-1.86-1.93"/><path d="m20.26 16.13-6.9-4.04"/><path d="m19.79 13.73-2.29.79"/><path d="m17.5 14.52.42 2.33"/><path d="m20.26 7.91-6.9 4.04"/><path d="m19.79 10.31-2.29-.78"/><path d="m17.5 9.53.42-2.34"/></g><path d="m13.36 17.63a5.35 5.35 0 0 1 -5.13-5.54 5.35 5.35 0 0 1 5.13-5.54" fill="none" stroke-linejoin="round"/></g></svg>