<svg xmlns="http://www.w3.org/2000/svg" viewBox="0 0 24 24"><path d="M3.33 12.008h17.349v5.77a3 3 0 0 1-3 3H6.33a3 3 0 0 1-3-3zm4.288 5.997v-3.128m4.387 3.128v-3.128m4.382 3.128v-3.128M6.168 12.008v-3.02h2.976l3.989 2.604" fill="none" stroke="currentColor" stroke-linecap="round" stroke-linejoin="round" stroke-width="1.5"/><circle cx="7.615" cy="4.683" r="1.432" fill="none" stroke="currentColor" stroke-linecap="round" stroke-linejoin="round" stroke-width="1.5"/><path d="M14.925 9.22a2.148 2.148 0 0 0 0-2.758 2.288 2.288 0 0 1 .243-2.929m3.786 5.687a2.148 2.148 0 0 0 0-2.758 2.29 2.29 0 0 1 .246-2.929" fill="none" stroke="currentColor" stroke-linecap="round" stroke-linejoin="round" stroke-width="1.5"/></svg>