<svg xmlns="http://www.w3.org/2000/svg" viewBox="0 0 48 48"><path d="M42.12 16.472c-.143-2.921-.808-5.51-2.945-7.647s-4.726-2.8-7.647-2.945c-2.517-.142-5.011-.119-7.528-.119s-5.011-.023-7.528.119c-2.921.143-5.51.808-7.647 2.945s-2.8 4.726-2.945 7.647c-.142 2.517-.119 5.011-.119 7.528s-.023 5.011.119 7.528c.143 2.921.808 5.51 2.945 7.647s4.726 2.8 7.647 2.945c2.517.142 5.011.119 7.528.119s5.011.023 7.528-.119c2.921-.143 5.51-.808 7.647-2.945s2.8-4.726 2.945-7.647c.142-2.517.119-5.011.119-7.528s.023-5.011-.119-7.528zm-3.895 18.286a6.212 6.212 0 0 1-3.467 3.467c-2.4.95-8.1.736-10.758.736s-8.359.214-10.758-.736a6.212 6.212 0 0 1-3.467-3.467c-.95-2.4-.736-8.1-.736-10.758s-.214-8.359.736-10.758a6.212 6.212 0 0 1 3.467-3.467c2.4-.95 8.1-.736 10.758-.736s8.359-.214 10.758.736a6.212 6.212 0 0 1 3.467 3.467c.95 2.4.736 8.1.736 10.758s.214 8.359-.736 10.758z" fill="currentColor"/><path d="M33.737 12.078a2.185 2.185 0 1 0 2.185 2.185 2.18 2.18 0 0 0-2.185-2.185zM24 14.643A9.357 9.357 0 1 0 33.357 24 9.345 9.345 0 0 0 24 14.643zm0 15.437A6.08 6.08 0 1 1 30.08 24 6.092 6.092 0 0 1 24 30.08z" fill="currentColor"/></svg>