<svg xmlns="http://www.w3.org/2000/svg" viewBox="0 0 24 24"><path d="M9.274 12.188a3.607 3.607 0 1 0-3.086-1.464m-.028.061L5.044 13.13l.06 1.242-1.043.828.048 1.3-1.051.8.76 2.355a.493.493 0 0 0 .73.266l1.463-.915 3.227-6.757m3.146-5.719l2.884-.947a1.974 1.974 0 0 1 2.483 1.258l3.094 9.44a1.972 1.972 0 0 1-1.258 2.483L16.5 19.775a1.972 1.972 0 0 1-2.483-1.258l-2.337-7.126M9.246 7.424s.113-2.8 2.115-3.341a2.042 2.042 0 0 1 2.463 1.464" fill="none" stroke="currentColor" stroke-linecap="round" stroke-linejoin="round" stroke-width="1.5"/></svg>