<svg xmlns="http://www.w3.org/2000/svg" viewBox="0 0 48 48"><path d="M32.09 18.247a2.534 2.534 0 0 1 2.6-2.531 3.239 3.239 0 0 1 2.116.458v.026a4.276 4.276 0 0 1 1.178 1.527l2.815-2.16a12.433 12.433 0 0 0-1.484-1.92h.022c-1.527-1.353-2.684-1.419-4.6-1.484a6.171 6.171 0 0 0-6.24 5.891 4 4 0 0 0 .065.721c1.353 8.531 10.888 5 10.888 10.189 0 2.4-2.007 3.863-4.276 3.863-2.488 0-4.124-2.357-5.084-4.364-3.535-7.266-4.059-16.3-14.489-16.3-6.284 0-11.7 5.782-11.7 12C3.9 30.575 8.83 36.4 15.419 36.4c3.252 0 6.263-.764 8.467-3.317l-.022-.021a6.934 6.934 0 0 0 .96-1.528l-1.833-3.316a12.435 12.435 0 0 1-1.811 2.532c-1.4 1.636-3.557 2.073-5.63 2.073-4.691 0-8.073-4.19-8.073-8.707 0-4.254 3.8-8.4 8.117-8.4 4.866 0 6.633 2.531 8.313 6.851C25.937 27.8 28.119 36.4 35.145 36.4 39.378 36.4 43 33.346 43 29c0-4.277-3.448-6.219-7.092-7.244-1.636-.458-3.011-.829-3.6-2.619a7.672 7.672 0 0 1-.218-.89z" fill="currentColor"/></svg>