<svg xmlns="http://www.w3.org/2000/svg" viewBox="0 0 24 24"><path d="M15.382 15.442c0-1.223 1.792-3.44 1.792-3.44A6.29 6.29 0 1 0 6.826 12s1.792 2.217 1.792 3.44" fill="none" stroke="currentColor" stroke-linecap="round" stroke-linejoin="round" stroke-width="1.5"/><path d="M9.577 5.11a4.239 4.239 0 0 0-.961.939 4.191 4.191 0 0 0-.823 2.5M12 4.343a4.172 4.172 0 0 0-.646.049m-2.736 11.05h6.771v1.996H8.618zm0 1.996h6.771v1.996H8.618zm2.661 4.175l-2.661-2.179h6.771l-2.746 2.188a1.082 1.082 0 0 1-1.364-.009z" fill="none" stroke="currentColor" stroke-linecap="round" stroke-linejoin="round" stroke-width="1.5"/></svg>