<svg xmlns="http://www.w3.org/2000/svg" viewBox="0 0 24 24"><path d="M8.306 11.321A10.2 10.2 0 0 0 11.921 6.3c.268-.988.6-2.8 1.905-2.846a1.655 1.655 0 0 1 1.125.431c.909.8.674 1.817.591 2.892a9.808 9.808 0 0 1-.683 3.078.127.127 0 0 0 .124.192h4.21a1.412 1.412 0 0 1 1.17.609 2.6 2.6 0 0 1 .45 1.486 38.728 38.728 0 0 1-.974 5.423c-.537 1.753-1.275 2.982-2.91 2.982h-4.042a7.175 7.175 0 0 1-2.352-.576 10.122 10.122 0 0 1-2.229-.956" fill="none" stroke="currentColor" stroke-linecap="round" stroke-linejoin="round" stroke-width="1.5"/><rect x="3.187" y="10.047" width="5" height="10.5" rx=".501" stroke-width="1.5" stroke="currentColor" stroke-linecap="round" stroke-linejoin="round" fill="none"/><g fill="none" stroke="currentColor" stroke-linecap="round" stroke-linejoin="round" stroke-width="1.5"><path d="M8.306 11.321A10.2 10.2 0 0 0 11.921 6.3c.268-.988.6-2.8 1.905-2.846a1.655 1.655 0 0 1 1.125.431c.909.8.674 1.817.591 2.892a9.808 9.808 0 0 1-.683 3.078.127.127 0 0 0 .124.192h4.21a1.412 1.412 0 0 1 1.17.609 2.6 2.6 0 0 1 .45 1.486 38.728 38.728 0 0 1-.974 5.423c-.537 1.753-1.275 2.982-2.91 2.982h-4.042a7.175 7.175 0 0 1-2.352-.576 10.122 10.122 0 0 1-2.229-.956"/><rect x="3.187" y="10.047" width="5" height="10.5" rx=".501"/></g><circle cx="5.687" cy="17.797" r="1" fill="currentColor"/></svg>