<svg xmlns="http://www.w3.org/2000/svg" viewBox="0 0 24 24"><circle cx="12.002" cy="4.269" r="1.321" fill="none" stroke="currentColor" stroke-linecap="round" stroke-miterlimit="10" stroke-width="1.5"/><circle cx="12.002" cy="15.096" r="1.321" fill="none" stroke="currentColor" stroke-linecap="round" stroke-miterlimit="10" stroke-width="1.5"/><circle cx="19.711" cy="10.224" r="1.321" fill="none" stroke="currentColor" stroke-linecap="round" stroke-miterlimit="10" stroke-width="1.5"/><circle cx="4.287" cy="10.224" r="1.321" fill="none" stroke="currentColor" stroke-linecap="round" stroke-miterlimit="10" stroke-width="1.5"/><path d="M17.983 20.244l-2.067-8.2a.483.483 0 0 0-.468-.364H8.512a.482.482 0 0 0-.468.365L6 20.246a.482.482 0 0 0 .468.6H8.6a.968.968 0 0 0 .965-.965 1.594 1.594 0 0 1 1.594-1.594h1.668a1.594 1.594 0 0 1 1.594 1.594v.482a.482.482 0 0 0 .482.483h2.612a.483.483 0 0 0 .468-.602zM14.42 9.784v-.218a1.93 1.93 0 0 0-1.929-1.93h-.977a1.93 1.93 0 0 0-1.93 1.93v.218m9.504 7.323h2.162a.482.482 0 0 0 .482-.483v-1.5a1.576 1.576 0 0 0-.882-1.288 1.818 1.818 0 0 0-2.46.462M5.61 14.3a1.818 1.818 0 0 0-2.46-.462 1.576 1.576 0 0 0-.882 1.288v1.5a.482.482 0 0 0 .482.483h2.162" fill="none" stroke="currentColor" stroke-linecap="round" stroke-miterlimit="10" stroke-width="1.5"/></svg>