<svg xmlns="http://www.w3.org/2000/svg" viewBox="0 0 24 24"><circle cx="12" cy="12" r=".75" fill="currentColor"/><circle cx="15.5" cy="12" r=".75" fill="currentColor"/><circle cx="19" cy="12" r=".75" fill="currentColor"/><circle cx="8.5" cy="12" r=".75" fill="currentColor"/><circle cx="5" cy="12" r=".75" fill="currentColor"/><circle cx="12" cy="8.5" r=".75" fill="currentColor"/><circle cx="15.5" cy="8.5" r=".75" fill="currentColor"/><circle cx="19" cy="8.5" r=".75" fill="currentColor"/><circle cx="8.5" cy="8.5" r=".75" fill="currentColor"/><circle cx="5" cy="8.5" r=".75" fill="currentColor"/><circle cx="12" cy="5" r=".75" fill="currentColor"/><circle cx="15.5" cy="5" r=".75" fill="currentColor"/><circle cx="19" cy="5" r=".75" fill="currentColor"/><circle cx="8.5" cy="5" r=".75" fill="currentColor"/><circle cx="5" cy="5" r=".75" fill="currentColor"/><circle cx="12" cy="15.5" r=".75" fill="currentColor"/><circle cx="15.5" cy="15.5" r=".75" fill="currentColor"/><circle cx="19" cy="15.5" r=".75" fill="currentColor"/><circle cx="8.5" cy="15.5" r=".75" fill="currentColor"/><circle cx="5" cy="15.5" r=".75" fill="currentColor"/><circle cx="12" cy="19" r=".75" fill="currentColor"/><circle cx="15.5" cy="19" r=".75" fill="currentColor"/><circle cx="19" cy="19" r=".75" fill="currentColor"/><circle cx="8.5" cy="19" r=".75" fill="currentColor"/><circle cx="5" cy="19" r=".75" fill="currentColor"/></svg>