<svg xmlns="http://www.w3.org/2000/svg" viewBox="0 0 24 24"><path d="M6.416 14.438l-3.3 3.3a2.067 2.067 0 0 0 0 2.924 2.069 2.069 0 0 0 2.925 0l3.3-3.3 1.55 1.551a1.95 1.95 0 0 0 2.751 0l1.558-1.549-8.784-8.779-1.551 1.551a1.952 1.952 0 0 0 0 2.751z" fill="none" stroke="currentColor" stroke-linecap="round" stroke-linejoin="round" stroke-width="1.5"/><path fill="none" stroke="currentColor" stroke-linecap="round" stroke-linejoin="round" stroke-width="1.5" d="M15.195 17.364l5.853-5.853-8.779-8.779-5.853 5.853m12.681.975l-1.951 1.951m-1.951-5.852L13.244 7.61m3.902 0l-.975.975m4.92 8.356l-1.018-1.528-1.019 1.528a2.386 2.386 0 0 0-.4 1.3 1.414 1.414 0 0 0 1.415 1.415 1.415 1.415 0 0 0 1.415-1.415 2.4 2.4 0 0 0-.393-1.3z"/></svg>