<svg xmlns="http://www.w3.org/2000/svg" viewBox="0 0 24 24"><path d="M7.275 20.605l-4.783.9.9-4.783a.89.89 0 0 1 .246-.465L15.6 4.3l4.1 4.1L7.74 20.359a.89.89 0 0 1-.465.246z" fill="none" stroke="currentColor" stroke-linecap="round" stroke-linejoin="round" stroke-width="1.5"/><path d="M19.7 8.4l-4.1-4.1 1.331-1.33a1.722 1.722 0 0 1 2.434.053l1.612 1.612a1.722 1.722 0 0 1 .053 2.434zM3.456 16.505A5.1 5.1 0 0 1 7.5 20.544m-1.258-2.79L17.647 6.349" fill="none" stroke="currentColor" stroke-linecap="round" stroke-linejoin="round" stroke-width="1.5"/></svg>