<svg xmlns="http://www.w3.org/2000/svg" viewBox="0 0 24 24"><circle cx="5.572" cy="10.888" r="1.725" fill="none" stroke="currentColor" stroke-linecap="round" stroke-linejoin="round" stroke-width="1.5"/><circle cx="18.428" cy="10.888" r="1.725" fill="none" stroke="currentColor" stroke-linecap="round" stroke-linejoin="round" stroke-width="1.5"/><circle cx="9.022" cy="6.576" r="1.725" fill="none" stroke="currentColor" stroke-linecap="round" stroke-linejoin="round" stroke-width="1.5"/><circle cx="14.978" cy="6.576" r="1.725" fill="none" stroke="currentColor" stroke-linecap="round" stroke-linejoin="round" stroke-width="1.5"/><path d="M12 9.922c-.079 0-.159 0-.24.006a2.573 2.573 0 0 0-1.8 1l-3.091 4.057a2.624 2.624 0 0 0-.256 2.849 2.466 2.466 0 0 0 2.562 1.286 22.833 22.833 0 0 1 5.643 0 2.464 2.464 0 0 0 2.561-1.286 2.622 2.622 0 0 0-.256-2.849l-3.085-4.056a2.571 2.571 0 0 0-1.8-1c-.082-.009-.162-.007-.238-.007z" fill="none" stroke="currentColor" stroke-linecap="round" stroke-linejoin="round" stroke-width="1.5"/></svg>