<svg xmlns="http://www.w3.org/2000/svg" viewBox="0 0 24 24"><path d="M10.683 13.294A11.282 11.282 0 0 1 8.8 10.861a1.5 1.5 0 0 1 .24-1.814l.8-.8a1.5 1.5 0 0 0 0-2.121L7.728 4.005A1.5 1.5 0 0 0 5.61 4L4.439 5.175a2.955 2.955 0 0 0-.869 2.362 14.016 14.016 0 0 0 3.781 7.713 16.027 16.027 0 0 0 7.655 4.911 9.585 9.585 0 0 0 1.465.26 2.955 2.955 0 0 0 2.362-.869L20 18.381a1.5 1.5 0 0 0 0-2.118l-2.122-2.12a1.5 1.5 0 0 0-2.121 0l-.8.8a1.726 1.726 0 0 1-2.3-.042 13.357 13.357 0 0 1-1.974-1.607z" fill="none" stroke="currentColor" stroke-linecap="round" stroke-linejoin="round" stroke-width="1.5"/></svg>