<svg xmlns="http://www.w3.org/2000/svg" viewBox="0 0 24 24"><path d="M21.842 17.813a1.345 1.345 0 0 1-2.581.528 47.162 47.162 0 0 1-7.387.377 49.157 49.157 0 0 1-7.153-.343A1.342 1.342 0 1 1 2.936 16.6a24.2 24.2 0 0 1-.315-4.586A24.033 24.033 0 0 1 2.94 7.4a1.342 1.342 0 1 1 1.792-1.753 49.2 49.2 0 0 1 7.142-.342 49.757 49.757 0 0 1 7.386.357A1.344 1.344 0 1 1 21 7.433a24.341 24.341 0 0 1 .312 4.579A24.537 24.537 0 0 1 21 16.569a1.342 1.342 0 0 1 .842 1.244z" fill="none" stroke="currentColor" stroke-linecap="round" stroke-linejoin="round" stroke-width="1.5"/><path d="M18.411 15.747a41.649 41.649 0 0 1-6.524.333 43.367 43.367 0 0 1-6.317-.3" fill="none" stroke="currentColor" stroke-linecap="round" stroke-linejoin="round" stroke-width="1.5"/></svg>