<svg xmlns="http://www.w3.org/2000/svg" viewBox="0 0 48 48"><path d="M42.751 24A18.751 18.751 0 1 0 16.48 41.188a16.412 16.412 0 0 1 .318-4.321s.366-1.514 2.417-10.206a7.806 7.806 0 0 1-.611-2.978c0-2.784 1.612-4.859 3.614-4.859a2.528 2.528 0 0 1 2.539 2.832c0 1.709-1.1 4.273-1.66 6.641a2.9 2.9 0 0 0 2.954 3.614c3.565 0 5.957-4.566 5.957-9.962 0-4.126-2.783-7.2-7.813-7.2a8.882 8.882 0 0 0-9.229 8.984 5.445 5.445 0 0 0 1.246 3.687.926.926 0 0 1 .268 1.05c-.1.342-.293 1.172-.391 1.489a.643.643 0 0 1-.927.489c-2.613-1.075-3.834-3.956-3.834-7.178 0-5.323 4.493-11.72 13.38-11.72 7.178 0 11.89 5.2 11.89 10.743 0 7.373-4.1 12.867-10.132 12.867a5.321 5.321 0 0 1-4.566-2.346c-1.1 4.321-1.318 5.152-1.318 5.152a15.55 15.55 0 0 1-1.905 4 18.378 18.378 0 0 0 5.323.785A18.756 18.756 0 0 0 42.751 24z" fill="currentColor"/></svg>