<svg xmlns="http://www.w3.org/2000/svg" viewBox="0 0 24 24"><path d="M15.424 11.634c.935.935 5.055 6.579 4.12 7.513s-6.867-3.483-7.8-4.418m.418-6.348c-.934-.934-6.294-4.781-7.229-3.845s3.33 6.714 4.267 7.648" fill="none" stroke="currentColor" stroke-linecap="round" stroke-linejoin="round" stroke-width="1.5"/><path d="M8.263 17.469l-.563 4.14-1.885-3.5-3.496-1.88 4.14-.564c2.823-3.772 7.254-8.832 7.856-9.434a6.184 6.184 0 0 1 3.623-.981.817.817 0 0 1 .742.742 6.191 6.191 0 0 1-.98 3.62c-.6.6-5.668 5.037-9.44 7.861" fill="none" stroke="currentColor" stroke-linecap="round" stroke-linejoin="round" stroke-width="1.5"/></svg>