<svg xmlns="http://www.w3.org/2000/svg" viewBox="0 0 48 48"><path d="M21.71 25.909a1.9 1.9 0 1 0-1.887 1.891 1.9 1.9 0 0 0 1.887-1.891zm5.874 3.838A5.559 5.559 0 0 1 24 30.786a5.523 5.523 0 0 1-3.584-1.039.46.46 0 0 0-.636 0 .448.448 0 0 0 0 .657c1.209 1.209 3.541 1.315 4.22 1.315s3.011-.106 4.22-1.315a.448.448 0 0 0 0-.657.46.46 0 0 0-.636 0zM28.177 24a1.9 1.9 0 1 0 1.909 1.909A1.9 1.9 0 0 0 28.177 24z" fill="currentColor"/><path d="M24 5a19 19 0 1 0 19 19A19 19 0 0 0 24 5zm10.009 20.633a4.607 4.607 0 0 1 .148 1.208c0 4.03-4.538 7.3-10.136 7.3-5.577 0-10.115-3.265-10.115-7.3a5.5 5.5 0 0 1 .128-1.187 2.536 2.536 0 1 1 2.947-4.029 12.5 12.5 0 0 1 6.553-2.057L25 12.952a.45.45 0 0 1 .53-.339l4.686 1.039a1.9 1.9 0 1 1 1.7 2.757 1.893 1.893 0 0 1-1.888-1.888l-4.241-.954-1.336 6A12.386 12.386 0 0 1 31.04 21.6a2.563 2.563 0 0 1 1.824-.764 2.53 2.53 0 0 1 1.145 4.793z" fill="currentColor"/></svg>