<svg xmlns="http://www.w3.org/2000/svg" viewBox="0 0 24 24"><path fill="none" stroke="currentColor" stroke-linecap="round" stroke-linejoin="round" stroke-width="1.5" d="M21.05 19.142h-7.371L12 22.5l-1.679-3.358H2.95V5.5h18.1v13.642z"/><path d="M12.209 8.259l1.161 2.385 2.63.367a.233.233 0 0 1 .129.4l-1.909 1.842.463 2.611a.233.233 0 0 1-.339.246L12 14.862l-2.341 1.246a.233.233 0 0 1-.339-.246l.463-2.611-1.909-1.842a.233.233 0 0 1 .129-.4l2.627-.367 1.161-2.385a.233.233 0 0 1 .418.002z" fill="none" stroke="currentColor" stroke-linecap="round" stroke-linejoin="round" stroke-width="1.5"/></svg>