<svg xmlns="http://www.w3.org/2000/svg" viewBox="0 0 24 24"><path fill="none" stroke="currentColor" stroke-linecap="round" stroke-linejoin="round" stroke-width="1.5" d="M3.173 20.983v-9.814h17.579v9.814M4.429 11.169V8.634h15.067v2.535M5.628 8.634V2.5h9.069v6.134m1.032 0v2.535m-3.767-2.535v2.535M8.195 8.634v2.535"/><path d="M5.628 20.983v-3.612a2.393 2.393 0 0 1 2.393-2.393 2.393 2.393 0 0 1 2.393 2.393v3.612m2.923 0v-3.612a2.392 2.392 0 0 1 2.392-2.393 2.393 2.393 0 0 1 2.393 2.393v3.612M8.021 14.978v6.005m-2.393-1.819h4.786m5.314-4.186v6.005m-2.393-1.819h4.786M10.163 4.868a1.345 1.345 0 0 1 1.345 1.345v2.421h-2.69V6.213a1.345 1.345 0 0 1 1.345-1.345z" fill="none" stroke="currentColor" stroke-linecap="round" stroke-linejoin="round" stroke-width="1.5"/></svg>