<svg xmlns="http://www.w3.org/2000/svg" viewBox="0 0 24 24"><path d="M20.468 17.338a3.649 3.649 0 0 1-2.821-1.329 3.66 3.66 0 0 1-5.643 0 3.66 3.66 0 0 1-5.643 0 3.651 3.651 0 0 1-2.821 1.329m16.928 2.673a3.652 3.652 0 0 1-2.821-1.329 3.66 3.66 0 0 1-5.643 0 3.66 3.66 0 0 1-5.643 0 3.654 3.654 0 0 1-2.821 1.329m3.213-3.621a5.854 5.854 0 1 1 10.5 0m.506-8.418l1.542-1.542m.842 7.298h2.181m-18.46 0h-2.18m4.564-5.756L4.707 6.43m7.297-.842v-2.18" fill="none" stroke="currentColor" stroke-linecap="round" stroke-linejoin="round" stroke-width="1.5"/></svg>