<svg xmlns="http://www.w3.org/2000/svg" viewBox="0 0 24 24"><circle cx="12" cy="12.005" r="2.562" fill="none" stroke="currentColor" stroke-linecap="round" stroke-linejoin="round" stroke-width="1.5"/><path d="M18.049 15.547a2.551 2.551 0 0 1 2.5-1.258.733.733 0 0 0 .788-.6 9.063 9.063 0 0 0 .022-3.26.734.734 0 0 0-.8-.609 2.546 2.546 0 0 1-2.344-4.062.752.752 0 0 0-.108-1.03A9.471 9.471 0 0 0 15.3 3.091a.753.753 0 0 0-.951.422 2.545 2.545 0 0 1-4.69 0 .753.753 0 0 0-.959-.422 9.471 9.471 0 0 0-2.815 1.633.752.752 0 0 0-.108 1.03 2.546 2.546 0 0 1-2.344 4.062.734.734 0 0 0-.8.609 9.063 9.063 0 0 0 .022 3.26.733.733 0 0 0 .788.6A2.551 2.551 0 0 1 5.825 18.3a.752.752 0 0 0 .126 1.016 9.456 9.456 0 0 0 2.8 1.6.752.752 0 0 0 .938-.4 2.554 2.554 0 0 1 4.63 0 .752.752 0 0 0 .938.4 9.456 9.456 0 0 0 2.8-1.6.752.752 0 0 0 .126-1.016 2.553 2.553 0 0 1-.134-2.753z" fill="none" stroke="currentColor" stroke-linecap="round" stroke-linejoin="round" stroke-width="1.5"/></svg>