<svg xmlns="http://www.w3.org/2000/svg" viewBox="0 0 48 48"><path d="M40.3 27.553A17.544 17.544 0 0 0 40.677 24 16.671 16.671 0 0 0 24 7.323a17.544 17.544 0 0 0-3.553.379A9.086 9.086 0 0 0 7.7 20.447 17.544 17.544 0 0 0 7.323 24 16.671 16.671 0 0 0 24 40.677a17.544 17.544 0 0 0 3.553-.379A9.086 9.086 0 0 0 40.3 27.553zm-15.8 7.439c-5.329 0-9.783-2.369-9.783-5.283a2.283 2.283 0 0 1 2.393-2.487c2.534 0 2.771 3.648 7.154 3.648 2.084 0 3.434-.924 3.434-2.132 0-1.516-1.3-1.753-3.411-2.274l-3.458-.853c-3.459-.829-6.112-2.251-6.112-6.23 0-4.809 4.761-6.586 8.86-6.586 4.477 0 9 1.777 9 4.5a2.445 2.445 0 0 1-2.463 2.582c-2.3 0-2.369-2.724-6.088-2.724-2.085 0-3.411.568-3.411 1.824 0 1.374 1.35 1.682 3.15 2.108l2.464.569c3.364.758 7.367 2.179 7.367 6.3-.002 4.811-4.645 7.038-9.096 7.038z" fill="currentColor"/></svg>