<svg xmlns="http://www.w3.org/2000/svg" viewBox="0 0 24 24"><path d="M20.075 13.353a4.453 4.453 0 0 0-.352-2.242l-.207-.428a5.385 5.385 0 0 0-.978-1.295 4.867 4.867 0 0 0-.4-.344C17.06 8.14 14.651 7.557 12 7.557s-5.06.583-6.131 1.482a4.98 4.98 0 0 0-.407.349 5.385 5.385 0 0 0-.978 1.3l-.207.428a4.453 4.453 0 0 0-.352 2.242l.082.454a3.343 3.343 0 0 0 1.516 2.108 3.706 3.706 0 0 0 1.94.523 4.526 4.526 0 0 0 1.4-.226 3.653 3.653 0 0 0 1.336-.829 2.487 2.487 0 0 1 3.612 0 3.653 3.653 0 0 0 1.336.829 4.013 4.013 0 0 0 3.335-.3 3.343 3.343 0 0 0 1.516-2.113z" fill="none" stroke="currentColor" stroke-linecap="round" stroke-linejoin="round" stroke-width="1.5"/><path d="M3.924 13.343a4.888 4.888 0 0 1-.424.018c-1.381 0-2.5 0-2.5-1.25s1.119-1.25 2.5-1.25a4.714 4.714 0 0 1 .861.077m15.278 0a4.714 4.714 0 0 1 .861-.077c1.381 0 2.5 0 2.5 1.25s-1.119 1.25-2.5 1.25c-.145 0-.286-.006-.424-.018" fill="none" stroke="currentColor" stroke-linecap="round" stroke-linejoin="round" stroke-width="1.5"/></svg>