<svg xmlns="http://www.w3.org/2000/svg" viewBox="0 0 24 24"><path d="M7.722 3.728a3.338 3.338 0 0 0-1.153.346 4.2 4.2 0 0 0-1.355.991 2.992 2.992 0 0 0-.662 1.26 10.1 10.1 0 0 0 .517 5.647 32.81 32.81 0 0 1 .838 4.074c.083 1.914.542 4.52 3.052 4.074a2.97 2.97 0 0 0 1.3-.52 2.037 2.037 0 0 0 .706-1.756c-.017-1.3-.165-2.589-.175-3.889-.012-1.64.05-3.281.156-4.918a6.473 6.473 0 0 0-.9-4.1A2.777 2.777 0 0 0 8.4 3.771a2.247 2.247 0 0 0-.678-.043zm-3.17 2.597h6.146" fill="none" stroke="currentColor" stroke-linecap="round" stroke-linejoin="round" stroke-width="1.5"/><path d="M5.069 11.972a6.308 6.308 0 0 1 2.964-1 5.011 5.011 0 0 1 2.715.969" fill="none" stroke="currentColor" stroke-linecap="round" stroke-linejoin="round" stroke-width="1.5"/><g fill="none" stroke="currentColor" stroke-linecap="round" stroke-linejoin="round" stroke-width="1.5"><path d="M16.541 3.728a3.338 3.338 0 0 1 1.153.346 4.2 4.2 0 0 1 1.355.991 2.992 2.992 0 0 1 .662 1.26 10.1 10.1 0 0 1-.517 5.647 32.666 32.666 0 0 0-.837 4.074c-.084 1.914-.543 4.52-3.053 4.074a2.97 2.97 0 0 1-1.3-.52 2.037 2.037 0 0 1-.706-1.756c.017-1.3.165-2.589.175-3.889.012-1.64-.05-3.281-.156-4.918a6.473 6.473 0 0 1 .9-4.1 2.779 2.779 0 0 1 1.649-1.167 2.239 2.239 0 0 1 .675-.042zm3.17 2.597h-6.146"/><path d="M19.194 11.972a6.308 6.308 0 0 0-2.964-1 5.011 5.011 0 0 0-2.715.969"/></g></svg>