<svg xmlns="http://www.w3.org/2000/svg" viewBox="0 0 48 48"><path d="M42.34 32.97c-5.166-.851-7.49-6.152-7.587-6.377a.339.339 0 0 0-.018-.039 1.681 1.681 0 0 1-.182-1.391c.3-.7 1.4-1.051 2.124-1.282.2-.064.394-.125.551-.187 1.288-.509 1.935-1.134 1.921-1.857a1.541 1.541 0 0 0-1.157-1.326 2.12 2.12 0 0 0-.793-.152 1.748 1.748 0 0 0-.727.148 4.431 4.431 0 0 1-1.638.464 1.452 1.452 0 0 1-.638-.159c.014-.262.031-.531.049-.813l.007-.109c.162-2.582.365-5.8-.479-7.688a10.127 10.127 0 0 0-9.4-6.059h-.094l-.657.006a10.11 10.11 0 0 0-9.387 6.056c-.843 1.89-.641 5.1-.479 7.682.019.3.04.62.057.925a1.515 1.515 0 0 1-.739.161 4.251 4.251 0 0 1-1.748-.467 1.4 1.4 0 0 0-.6-.124 1.886 1.886 0 0 0-1.847 1.27c-.1.548.141 1.347 1.9 2.042.158.063.349.123.551.187.727.231 1.826.579 2.124 1.282a1.687 1.687 0 0 1-.182 1.392l-.018.038c-.1.225-2.423 5.528-7.587 6.378a.789.789 0 0 0-.667.821 1.058 1.058 0 0 0 .084.354c.388.906 2.023 1.57 5 2.032a3.711 3.711 0 0 1 .266.9c.062.286.127.58.218.891a.881.881 0 0 0 .922.671 4.783 4.783 0 0 0 .858-.121 10.106 10.106 0 0 1 2.025-.229 8.979 8.979 0 0 1 1.453.122 6.9 6.9 0 0 1 2.722 1.405 8.568 8.568 0 0 0 5.216 2.041c.064 0 .128 0 .192-.007s.174.007.278.007a8.577 8.577 0 0 0 5.216-2.04 6.9 6.9 0 0 1 2.723-1.406 8.967 8.967 0 0 1 1.452-.122 10.075 10.075 0 0 1 2.025.215 4.786 4.786 0 0 0 .858.106h.044a.858.858 0 0 0 .879-.658c.089-.3.154-.592.217-.882a3.677 3.677 0 0 1 .265-.9c2.978-.462 4.613-1.125 5-2.028a1.065 1.065 0 0 0 .087-.351.79.79 0 0 0-.66-.822z" fill="currentColor"/></svg>