<svg xmlns="http://www.w3.org/2000/svg" viewBox="0 0 24 24"><path d="M4.486 9.242V6.558a.781.781 0 0 1 .78-.781h13.468a.781.781 0 0 1 .78.781v2.684" fill="none" stroke="currentColor" stroke-linecap="round" stroke-linejoin="round" stroke-width="1.5"/><path d="M20.28 9.1a1.914 1.914 0 0 1 1.86 1.87c0 .828-.2 1.529-.821 1.771a.789.789 0 0 0-.52.73v3.044H3.2V13.47a.792.792 0 0 0-.523-.731 1.447 1.447 0 0 1-.8-1.318 2.167 2.167 0 0 1 .479-1.713 1.772 1.772 0 0 1 2.2-.324 2.265 2.265 0 0 1 1.159 2.021v2.263h12.569v-2.412a2.087 2.087 0 0 1 1.138-1.991 1.878 1.878 0 0 1 .858-.165zM5.718 11.256h12.566M4.486 16.514v1.709m15.028-1.709v1.709" fill="none" stroke="currentColor" stroke-linecap="round" stroke-linejoin="round" stroke-width="1.5"/></svg>