<svg xmlns="http://www.w3.org/2000/svg" viewBox="0 0 48 48"><path d="M24 5.249A18.751 18.751 0 1 0 42.751 24 18.756 18.756 0 0 0 24 5.249zm7.618 27.589a1.444 1.444 0 0 1-.806-.268 18.845 18.845 0 0 0-9.693-2.515 29.7 29.7 0 0 0-5.933.659 5.07 5.07 0 0 1-.9.2 1.181 1.181 0 0 1-1.2-1.2 1.2 1.2 0 0 1 1.026-1.269 32.127 32.127 0 0 1 7.007-.831 20.939 20.939 0 0 1 10.914 2.808 1.273 1.273 0 0 1 .732 1.245 1.151 1.151 0 0 1-1.147 1.171zm2.026-4.956a1.834 1.834 0 0 1-.928-.317A23.817 23.817 0 0 0 20.8 24.537a23.308 23.308 0 0 0-6.129.806 3.183 3.183 0 0 1-.9.2 1.469 1.469 0 0 1-1.465-1.465 1.485 1.485 0 0 1 1.172-1.562 25.559 25.559 0 0 1 7.4-1.026 26.463 26.463 0 0 1 13.379 3.443 1.58 1.58 0 0 1 .855 1.489 1.454 1.454 0 0 1-1.468 1.46zm2.344-5.762a1.764 1.764 0 0 1-.977-.293c-3.393-2.026-8.667-3.15-13.745-3.15a28.162 28.162 0 0 0-7.5.9 3.648 3.648 0 0 1-.977.2 1.74 1.74 0 0 1-1.757-1.782 1.785 1.785 0 0 1 1.318-1.807 31.612 31.612 0 0 1 8.887-1.147c5.518 0 11.3 1.147 15.528 3.613a1.781 1.781 0 0 1 .977 1.709 1.75 1.75 0 0 1-1.754 1.757z" fill="currentColor"/></svg>