<svg xmlns="http://www.w3.org/2000/svg" viewBox="0 0 24 24"><path d="M13.2 3.958l-.45 14.162-5.022 2.674A.5.5 0 0 1 7 20.266l.992-5.6L3.9 10.715a.5.5 0 0 1 .277-.854l5.635-.788L12.3 3.958a.5.5 0 0 1 .9 0z" fill="currentColor"/><path d="M12.449 3.427l2.49 5.115 5.635.788a.5.5 0 0 1 .277.854l-4.095 3.949.992 5.6a.5.5 0 0 1-.726.528L12 17.589l-5.022 2.674a.5.5 0 0 1-.726-.528l.992-5.6-4.095-3.951a.5.5 0 0 1 .277-.854l5.635-.788 2.49-5.115a.5.5 0 0 1 .898 0z" fill="none" stroke="currentColor" stroke-linecap="round" stroke-linejoin="round" stroke-width="1.5"/></svg>