<svg xmlns="http://www.w3.org/2000/svg" viewBox="0 0 24 24"><path d="M12.336 11.584a1.283 1.283 0 0 1 1.2-1.354 1.283 1.283 0 0 1 1.2 1.354v3.208" fill="none" stroke="currentColor" stroke-linecap="round" stroke-linejoin="round" stroke-width="1.5"/><path d="M12.336 14.292V7.924a1.283 1.283 0 0 0-1.2-1.354 1.283 1.283 0 0 0-1.2 1.354v8.433s-1.016-1.164-1.373-1.552a1.094 1.094 0 0 0-1.694 0 1.461 1.461 0 0 0 0 1.915l4.167 4.71h5.835a2.837 2.837 0 0 0 2.648-2.993v-5.963a1.283 1.283 0 0 0-1.2-1.354 1.283 1.283 0 0 0-1.2 1.354" fill="none" stroke="currentColor" stroke-linecap="round" stroke-linejoin="round" stroke-width="1.5"/><path d="M17.127 14.744v-2.709a1.283 1.283 0 0 0-1.2-1.354 1.283 1.283 0 0 0-1.2 1.354" fill="none" stroke="currentColor" stroke-linecap="round" stroke-linejoin="round" stroke-width="1.5"/><g fill="none" stroke="currentColor" stroke-linecap="round" stroke-linejoin="round" stroke-width="1.5"><path d="M5.757 4.068a11.015 11.015 0 0 1 11.1 0M4.582 2.864l-.02 2.391 2.39.02-2.37-2.411z"/><path d="M18.026 2.864l.021 2.391-2.391.02 2.37-2.411z"/></g></svg>