<svg xmlns="http://www.w3.org/2000/svg" viewBox="0 0 48 48"><path d="M33.215 40.647a1.9 1.9 0 0 0 1.771.232 1.858 1.858 0 0 0 1.158-1.344c1.391-6.535 4.763-23.074 6.029-29.018a1.25 1.25 0 0 0-.416-1.217 1.283 1.283 0 0 0-1.275-.224c-6.709 2.483-27.37 10.235-35.815 13.36a1.316 1.316 0 0 0 .082 2.5c3.787 1.133 8.758 2.709 8.758 2.709s2.324 7.016 3.535 10.584a1.4 1.4 0 0 0 .965.921 1.385 1.385 0 0 0 1.3-.331l4.954-4.677s5.712 4.196 8.954 6.505zM15.6 26.763l2.686 8.861.6-5.611 16.3-14.7a.443.443 0 0 0 .053-.6.455.455 0 0 0-.6-.1z" fill="#111" fill-rule="evenodd"/></svg>