<svg xmlns="http://www.w3.org/2000/svg" viewBox="0 0 24 24"><path d="M9.925 14.3a.75.75 0 1 1-.753-.753.75.75 0 0 1 .753.753zm5.7 0a.75.75 0 1 1-.753-.753.75.75 0 0 1 .753.753z" fill="currentColor"/><path d="M15.338 3.7a1.2 1.2 0 0 1-1.2 1.2H9.86a1.2 1.2 0 0 1-1.2-1.2 1.2 1.2 0 0 1 1.2-1.2h4.28a1.2 1.2 0 0 1 1.198 1.2z" fill="none" stroke="currentColor" stroke-linecap="round" stroke-linejoin="round" stroke-width="1.5"/><path d="M15.258 3.279a1.181 1.181 0 0 1 .08.418 1.2 1.2 0 0 1-1.2 1.2H9.86a1.2 1.2 0 0 1-1.2-1.2 1.181 1.181 0 0 1 .08-.418A4.39 4.39 0 0 0 5.853 7.4v9.789h12.294V7.4a4.39 4.39 0 0 0-2.889-4.121z" fill="none" stroke="currentColor" stroke-linecap="round" stroke-linejoin="round" stroke-width="1.5"/><path d="M15.753 7.587v3.49a.449.449 0 0 1-.448.448H8.7a.449.449 0 0 1-.448-.448v-3.49a.443.443 0 0 1 .448-.441h6.61a.443.443 0 0 1 .443.441zM5.853 21.5l3.112-4.309h6.07l3.112 4.309" fill="none" stroke="currentColor" stroke-linecap="round" stroke-linejoin="round" stroke-width="1.5"/></svg>