<svg xmlns="http://www.w3.org/2000/svg" viewBox="0 0 48 48"><path d="M13.489 20.773h-.031a5.074 5.074 0 0 0 0 10.147h.031a5.077 5.077 0 0 0 0-10.154zm-.031 8.583a3.515 3.515 0 0 1 0-7.03h.031a3.518 3.518 0 1 1 0 7.036c-.01-.003-.02-.006-.031-.006z" fill="currentColor"/><path d="M15.185 25.841a1.7 1.7 0 1 0-1.7 1.714 1.7 1.7 0 0 0 1.7-1.714z" fill="currentColor"/><path d="M45 15.56h-6.982A25.289 25.289 0 0 0 24 11.677 26.448 26.448 0 0 0 9.654 15.56H3a9.679 9.679 0 0 1 2.1 4.174 10.45 10.45 0 0 0 16.567 12.724A25.525 25.525 0 0 1 24 35.74c1.5-2.243 2.352-3.263 2.352-3.263A10.448 10.448 0 0 0 42.9 19.734 9.679 9.679 0 0 1 45 15.56zM13.536 34.3a8.422 8.422 0 1 1 8.422-8.421 8.421 8.421 0 0 1-8.422 8.421zm.019-18.885a26.941 26.941 0 0 1 10.445-2 25.147 25.147 0 0 1 10.135 2.023A10.442 10.442 0 0 0 24 25.878a10.46 10.46 0 0 0-10.445-10.464zM34.464 34.3a8.422 8.422 0 1 1 8.4-8.421 8.425 8.425 0 0 1-8.4 8.421z" fill="currentColor"/><path d="M34.454 24.118a1.7 1.7 0 1 0 1.714 1.7 1.7 1.7 0 0 0-1.714-1.7z" fill="currentColor"/><path d="M34.445 20.755a5.068 5.068 0 1 0 5.086 5.068 5.068 5.068 0 0 0-5.086-5.068zm0 8.586a3.518 3.518 0 1 1 3.519-3.518 3.52 3.52 0 0 1-3.519 3.518z" fill="currentColor"/></svg>