<svg xmlns="http://www.w3.org/2000/svg" viewBox="0 0 24 24"><path stroke-width="1.5" stroke="currentColor" stroke-linecap="round" stroke-linejoin="round" fill="none" d="M1.532 12.237h9.495v3.334H1.532zM4.088 9.9h4.383a1.517 1.517 0 0 1 1.517 1.517.817.817 0 0 1-.817.817H3.387a.817.817 0 0 1-.817-.817A1.517 1.517 0 0 1 4.088 9.9z"/><path stroke-width="1.5" stroke="currentColor" stroke-linecap="round" stroke-linejoin="round" fill="none" d="M2.321 7.318h7.92v4.92h-7.92zm.313 8.253v1.111m7.26-1.111v1.111"/><g stroke-width="1.5" stroke="currentColor" stroke-linecap="round" stroke-linejoin="round" fill="none"><path d="M12.973 12.237h9.495v3.334h-9.495zM15.529 9.9h4.383a1.517 1.517 0 0 1 1.517 1.517.817.817 0 0 1-.817.817h-5.783a.817.817 0 0 1-.817-.817A1.517 1.517 0 0 1 15.529 9.9z"/><path d="M13.762 7.318h7.92v4.92h-7.92zm.313 8.253v1.111m7.261-1.111v1.111"/></g></svg>