<svg xmlns="http://www.w3.org/2000/svg" viewBox="0 0 48 48"><path d="M43.457 13.233a15.624 15.624 0 0 1-4.485 1.206 7.763 7.763 0 0 0 3.428-4.292 15.348 15.348 0 0 1-4.943 1.881 7.8 7.8 0 0 0-13.478 5.329 8.765 8.765 0 0 0 .193 1.784 22.14 22.14 0 0 1-16.059-8.15 7.8 7.8 0 0 0 2.407 10.416A7.849 7.849 0 0 1 7 20.419v.1a7.789 7.789 0 0 0 6.245 7.644 8.269 8.269 0 0 1-2.05.265 9.718 9.718 0 0 1-1.47-.121 7.8 7.8 0 0 0 7.281 5.4 15.6 15.6 0 0 1-9.668 3.328 15.963 15.963 0 0 1-1.881-.1 22 22 0 0 0 11.959 3.5c14.323 0 22.159-11.862 22.159-22.158 0-.338 0-.675-.024-1.013a16.728 16.728 0 0 0 3.906-4.031z" fill="currentColor"/></svg>