<svg xmlns="http://www.w3.org/2000/svg" viewBox="0 0 48 48"><path d="M34.905 6.552H13.1A6.545 6.545 0 0 0 6.552 13.1v21.81a6.545 6.545 0 0 0 6.548 6.538h21.81a6.545 6.545 0 0 0 6.543-6.543V13.1a6.545 6.545 0 0 0-6.548-6.548zM30.77 28.226q-5.145 6.68-8.7 6.679c-1.477 0-2.7-1.363-3.726-4.067-.682-2.5-1.363-4.975-2.045-7.474-.749-2.7-1.567-4.067-2.431-4.067a8.65 8.65 0 0 0-1.976 1.182l-1.182-1.523c1.249-1.09 2.453-2.2 3.68-3.271 1.636-1.454 2.908-2.181 3.726-2.272 1.976-.182 3.18 1.159 3.635 4.021.5 3.113.84 5.021 1.022 5.794.591 2.567 1.182 3.839 1.863 3.839.523 0 1.318-.818 2.386-2.5a9.758 9.758 0 0 0 1.678-3.793c.159-1.454-.409-2.181-1.681-2.181a4.716 4.716 0 0 0-1.863.432q1.839-6.1 7.088-5.93c2.59.091 3.817 1.749 3.658 5.044-.088 2.453-1.815 5.816-5.132 10.087z" fill="currentColor"/></svg>