<svg xmlns="http://www.w3.org/2000/svg" viewBox="0 0 48 48"><path d="M43.511 13.962s-.3-.857-2.163-.621l-6.169.042a1.406 1.406 0 0 0-.814.129 1.276 1.276 0 0 0-.535.664A39.53 39.53 0 0 1 31.538 19c-2.741 4.669-3.855 4.926-4.3 4.627-1.049-.664-.771-2.7-.771-4.156 0-4.54.685-6.425-1.349-6.918a11.335 11.335 0 0 0-2.892-.278c-2.206-.022-4.069 0-5.119.514-.707.342-1.242 1.114-.921 1.156a2.851 2.851 0 0 1 1.814.916 6.348 6.348 0 0 1 .621 2.806c.235 5.333-.857 6-.857 6-.835.45-2.292-.3-4.434-4.712a42.957 42.957 0 0 1-2.206-4.583 1.575 1.575 0 0 0-.514-.686 2.222 2.222 0 0 0-.94-.386l-5.87.041a1.547 1.547 0 0 0-1.221.407s-.321.342-.021 1.049c4.583 10.774 9.81 16.171 9.81 16.171s4.776 4.991 10.2 4.648h2.463a1.844 1.844 0 0 0 1.135-.471 1.64 1.64 0 0 0 .321-1.093c-.042-3.3 1.5-3.791 1.5-3.791 1.5-.471 3.427 3.192 5.483 4.605a4.57 4.57 0 0 0 2.741.836l5.484-.086c2.891-.021 1.52-2.42 1.52-2.42-.107-.193-.792-1.671-4.091-4.734-3.427-3.191-2.977-2.677 1.178-8.2 2.524-3.362 3.53-5.422 3.209-6.3z" fill="currentColor"/></svg>