<svg xmlns="http://www.w3.org/2000/svg" viewBox="0 0 24 24"><path d="M4.07 6.682v10.661a.752.752 0 0 0 .753.752H18.81a.752.752 0 0 0 .753-.752v-8.8a.753.753 0 0 0-.753-.753h-1.951" fill="none" stroke="currentColor" stroke-linecap="round" stroke-linejoin="round" stroke-width="1.5"/><path d="M10.58 5.576h-5.4a1.106 1.106 0 0 0-1.11 1.106 1.106 1.106 0 0 0 1.106 1.106h11.683a.752.752 0 0 0 .752-.752v-.708a.752.752 0 0 0-.752-.752h-2.886" fill="none" stroke="currentColor" stroke-linecap="round" stroke-linejoin="round" stroke-width="1.5"/><path fill="none" stroke="currentColor" stroke-linecap="round" stroke-linejoin="round" stroke-width="1.5" d="M6.586 7.788l6.465-3.581 2.413 3.581m.439 6.514h1v1h-1z"/></svg>