<svg viewBox="0 0 24 24" xmlns="http://www.w3.org/2000/svg"><g fill="none" stroke="#000" stroke-miterlimit="10" stroke-width="1.5"><circle cx="6.51" cy="16.94" r="2.68"/><circle cx="17.15" cy="7.07" r="2.23"/><path d="m8.39 12.75a4.63 4.63 0 1 1 -3.72 0v-8.88a1.84 1.84 0 0 1 1.85-1.87 1.85 1.85 0 0 1 1.85 1.86z"/><g stroke-linecap="round"><path d="m6.51 4.34v9.7"/><path d="m17.15 12.13v-.63"/><path d="m17.15 2.79v-.64"/><path d="m12.14 7.07h.64"/><path d="m21.51 7.07h.64"/><path d="m20.2 3.9.45-.45"/><path d="m13.53 10.62.45-.46"/><path d="m8.87 9.87h.64"/><path d="m8.87 7.07h.64"/><path d="m8.87 4.41h.64"/><path d="m13.98 3.9-.45-.45"/><path d="m20.65 10.62-.45-.46"/></g></g></svg>