<svg xmlns="http://www.w3.org/2000/svg" viewBox="0 0 24 24"><path d="M13.377 8.749a4.479 4.479 0 0 1 4.413 3.76.122.122 0 0 0 .162.1 2.951 2.951 0 0 1 2.269-.074c1.948.692 2.635 3.25 1.774 5.006a3.632 3.632 0 0 1-.272.462 3.73 3.73 0 0 1-1.789 1.348 6.785 6.785 0 0 1-2.333.178c-.634.011-1.27 0-1.9 0h-4.677c-.635 0-1.271.011-1.9 0a6.785 6.785 0 0 1-2.333-.178A3.73 3.73 0 0 1 5 18a3.632 3.632 0 0 1-.272-.462c-.861-1.756-.174-4.314 1.774-5.006a2.951 2.951 0 0 1 2.269.074.122.122 0 0 0 .162-.1 4.479 4.479 0 0 1 4.413-3.76zm-7.509 4.103a2.927 2.927 0 1 1 4.748-3.227" fill="none" stroke="currentColor" stroke-linecap="round" stroke-linejoin="round" stroke-width="1.5"/><path fill="none" stroke="currentColor" stroke-miterlimit="10" stroke-width="1.5" d="M2.987 11.975l-1.348.331"/><path fill="none" stroke="currentColor" stroke-linecap="round" stroke-linejoin="round" stroke-width="1.5" d="M2.987 11.975l-1.348.331"/><path fill="none" stroke="currentColor" stroke-miterlimit="10" stroke-width="1.5" d="M3.567 8.128l-1.109-.672"/><path fill="none" stroke="currentColor" stroke-linecap="round" stroke-linejoin="round" stroke-width="1.5" d="M3.567 8.128l-1.109-.672"/><g fill="none" stroke="currentColor" stroke-width="1.5"><path stroke-miterlimit="10" d="M6.675 5.696l-.304-1.239"/><path stroke-linecap="round" stroke-linejoin="round" d="M6.675 5.696l-.304-1.239"/></g><g fill="none" stroke="currentColor" stroke-width="1.5"><path stroke-miterlimit="10" d="M10.616 6.312l.627-1.033"/><path stroke-linecap="round" stroke-linejoin="round" d="M10.616 6.312l.627-1.033"/></g></svg>