<svg xmlns="http://www.w3.org/2000/svg" viewBox="0 0 24 24"><path stroke-width="1.5" stroke="currentColor" stroke-linecap="round" stroke-linejoin="round" fill="none" d="M4 17.267h16v2.155H4zM8.368 5.745a5.471 5.471 0 0 0-1.854 4.111v7.411m10.972 0V9.856a5.475 5.475 0 0 0-1.928-4.176"/><path d="M6.514 11.231a5.767 5.767 0 0 0 2.767-2.414 6.706 6.706 0 0 0 .526-1.487m7.454 3.901A5.767 5.767 0 0 1 14.5 8.817a6.374 6.374 0 0 1-.479-1.3m-5.314 9.75s.378-4.682-2.193-5.742m8.645 5.742s-.378-4.682 2.192-5.742m-6.425-8.696a1.238 1.238 0 0 0-.87.356 1.167 1.167 0 0 0 0 1.643L12 6.893l1.945-2.065a1.165 1.165 0 0 0 0-1.642 1.189 1.189 0 0 0-1.694 0L12 3.449l-.252-.264a1.13 1.13 0 0 0-.822-.356z" fill="none" stroke="currentColor" stroke-linecap="round" stroke-linejoin="round" stroke-width="1.5"/></svg>