<svg xmlns="http://www.w3.org/2000/svg" viewBox="0 0 48 48"><path d="M29.366 25.915c-.638 0-1.866 2.381-2.6 2.381a1.079 1.079 0 0 1-.54-.172 14.391 14.391 0 0 1-3.707-2.479 12.4 12.4 0 0 1-2.5-3.363.74.74 0 0 1-.123-.369c0-.564 1.694-1.62 1.694-2.553 0-.245-1.252-3.584-1.424-4-.245-.638-.368-.834-1.031-.834-.319 0-.613-.074-.908-.074a1.781 1.781 0 0 0-1.276.54 5.157 5.157 0 0 0-1.817 3.879v.2a8.69 8.69 0 0 0 1.743 4.762c2.111 3.118 4.3 5.843 7.806 7.438a15.993 15.993 0 0 0 4.664 1.522c1.4 0 3.682-.884 4.247-2.258a5.426 5.426 0 0 0 .417-1.866 1.019 1.019 0 0 0-.049-.368 23.854 23.854 0 0 0-4.596-2.386z" fill="currentColor"/><path d="M24.344 5A18.512 18.512 0 0 0 8.486 33.058L5.147 43l10.237-3.289A18.511 18.511 0 1 0 24.344 5zm0 33.925a15.514 15.514 0 0 1-8.469-2.553l-5.941 1.89 1.939-5.719a15.4 15.4 0 1 1 12.471 6.382z" fill="currentColor"/></svg>