<svg xmlns="http://www.w3.org/2000/svg" viewBox="0 0 48 48"><path d="M24 6.877a17.055 17.055 0 0 1 11.582 4.514 2.814 2.814 0 0 0-3.047 2.882c-.126 4.112 4.917 4.988 2.2 13.259l-2.248 6.842-6.12-18.032c-.1-.279.015-.438.358-.438h1.731a.168.168 0 0 0 .164-.171v-1.025a.166.166 0 0 0-.164-.171q-4.916.216-9.774 0a.165.165 0 0 0-.163.171v1.025a.167.167 0 0 0 .163.171h1.74c.387 0 .5.129.587.379l2.515 6.878-3.783 11.425-6.22-18.319c-.077-.229.016-.363.238-.363h1.982a.168.168 0 0 0 .164-.171v-1.025a.166.166 0 0 0-.164-.171c-2.08.111-4.168.133-6.113.153A17.109 17.109 0 0 1 24 6.876zm15.06 8.969a17.132 17.132 0 0 1-6.842 23.178L37.559 23.9a23.839 23.839 0 0 0 1.5-8.053zm-9.327 24.292a17.195 17.195 0 0 1-10.713.249l5.28-15.118 5.438 14.87zm-13.06-.659A17.136 17.136 0 0 1 8.415 16.9l8.259 22.58zM24 5.27A18.73 18.73 0 1 1 5.27 24 18.732 18.732 0 0 1 24 5.27zm0-1.184A19.914 19.914 0 1 1 4.086 24 19.917 19.917 0 0 1 24 4.086z" fill="currentColor" fill-rule="evenodd"/></svg>