<svg xmlns="http://www.w3.org/2000/svg" viewBox="0 0 48 48"><path d="M42.358 14.789a4.865 4.865 0 0 0-4.118-3.841A127.274 127.274 0 0 0 24 10.417a127.274 127.274 0 0 0-14.24.531 4.839 4.839 0 0 0-4.1 3.841A41.675 41.675 0 0 0 4.984 24a43.037 43.037 0 0 0 .658 9.211 4.865 4.865 0 0 0 4.118 3.841 127.274 127.274 0 0 0 14.24.531 127.274 127.274 0 0 0 14.24-.531 4.816 4.816 0 0 0 4.1-3.841A41.675 41.675 0 0 0 43.016 24a43.037 43.037 0 0 0-.658-9.211zM31.946 25.146L21.08 31.937a1.247 1.247 0 0 1-.722.213 1.45 1.45 0 0 1-.658-.17 1.377 1.377 0 0 1-.7-1.189V17.209a1.377 1.377 0 0 1 .7-1.189 1.344 1.344 0 0 1 1.38.043l10.866 6.791a1.349 1.349 0 0 1 0 2.292z" fill="currentColor"/></svg>