<svg version="1" xmlns="http://www.w3.org/2000/svg" width="933.333" height="933.333" viewBox="0 0 700.000000 700.000000"><path d="M346 78.3c-1.4.7-7.2 4.1-13 7.4-5.8 3.3-12.1 7-14 8.1-4.3 2.4-73.3 42-114.5 65.7-45.2 26-91.6 52.6-95 54.5-7.8 4.4-72.3 41.5-75 43.1-1.6 1.1-3.9 2.3-5 2.8-4.3 1.9-28 16.3-28.7 17.4-.4.7-.8 46.1-.8 100.9C0 476.6.2 483 3.1 483c.4 0 22.8 12.5 49.6 27.8 26.8 15.4 50.8 29 53.3 30.4 2.5 1.4 19.3 10.9 37.3 21.3 25.5 14.6 33.3 18.6 35.2 18.1 1.3-.3 12.6-6.5 25.2-13.7 76.3-43.9 105.2-60.5 108.1-62 1.8-1 3.8-2.2 4.5-2.7.7-.5 3.7-2.3 6.7-3.9 3-1.7 10.4-5.8 16.3-9.2l10.8-6.2 3.7 2.2c2 1.2 5.7 3.3 8.2 4.7 2.5 1.4 10.1 5.8 17 9.7 6.9 4 14.2 8.2 16.3 9.4 2 1.2 5.4 3.1 7.5 4.2 2 1.2 14.1 8.1 26.7 15.4 12.7 7.3 25 14.3 27.5 15.7 2.5 1.4 17.9 10.2 34.2 19.7 16.4 9.4 30.5 17.1 31.4 17.1.9 0 18.3-9.5 38.8-21.2 20.4-11.7 38.8-22.1 40.8-23.2 2.1-1.2 23.4-13.4 47.4-27.1 24.1-13.8 44.2-25.2 44.8-25.4.6-.2 2.1-1.3 3.4-2.4l2.2-2V379.1c-.1-77.5-.3-101-1.3-102.1-.7-.9-7.9-5.5-16.2-10.2-8.2-4.7-26.9-15.5-41.4-23.8-14.6-8.4-28.1-16.2-30-17.2-2-1.1-12.4-7.1-23.1-13.3-10.7-6.1-21.5-12.3-24-13.7-2.5-1.4-11.7-6.7-20.5-11.8-8.8-5-18-10.3-20.5-11.7-2.5-1.4-13.3-7.6-24-13.8-10.7-6.1-21.5-12.3-24-13.7-8.9-5-99.7-57.2-110.5-63.5-12.1-7.1-14.8-8-18.5-6zm17.3 19.3c7.3 4.2 14.1 8.2 15.2 8.8 4 2.3 59 33.8 60.5 34.7 1.7 1 55.3 31.7 64.3 36.8 3.2 1.8 5.7 3.5 5.5 3.6-.3.3-62.5 36.1-69.8 40.2-2.5 1.4-7.6 4.4-11.5 6.6-3.8 2.3-8.6 5.1-10.6 6.2-5.5 3.1-34.6 19.8-38.1 21.8-1.7 1-8.9 5.2-16 9.2l-12.9 7.4-22.7-13.1c-12.5-7.2-24.2-14-26.1-15-1.9-1.1-14-8-27-15.5s-24.9-14.4-26.6-15.3c-1.6-1-13.8-7.9-27-15.5s-25.3-14.5-26.8-15.3c-3.4-1.7-4.3-1 14.3-11.7 24.6-14.3 79.4-45.7 84.5-48.5 2.8-1.5 16.7-9.5 31-17.8s26.1-15.1 26.3-15.1c.1-.1 6.2 3.3 13.5 7.5zM227 216.2c3.7 2.1 34 19.5 100.2 57.6 10.9 6.2 10.8 5.4.8 10.9-3 1.7-25.3 14.4-49.5 28.3s-48.7 28-54.5 31.3c-5.8 3.3-11.8 6.8-13.5 7.7-1.6 1-5.7 3.3-9 5.2-3.3 2-8 4.7-10.5 6.1-2.5 1.3-6.6 3.6-9.1 5.1l-4.6 2.6-41.4-23.6c-22.8-13-43.2-24.6-45.4-25.8-2.2-1.3-16.8-9.6-32.5-18.6-15.7-8.9-30.6-17.4-33.2-18.9-2.6-1.4-4.8-3-5-3.5-.2-.5 14.1-9.2 31.7-19.2C69.1 251.3 84.2 242.6 85 242c.8-.5 2.4-1.4 3.5-2 1.1-.5 21.8-12.3 46-26.3l44-25.3 22 12.6c12.1 7 24 13.8 26.5 15.2zm320.6-12.9c13.7 7.9 26.9 15.5 29.4 16.9 2.5 1.4 10.1 5.8 17 9.8 6.9 4 13.9 8 15.5 9 1.7.9 6.1 3.4 9.9 5.6 3.7 2.1 8.5 4.8 10.5 6 22.8 12.9 48.9 28 49.9 28.9 1.4 1.2-1.6 3.2-19.3 13-2.7 1.6-15.8 9-29 16.5-47.1 27-103.1 58.7-106.2 60.4-2.9 1.5-3.6 1.5-5.5.2-2.9-1.8-72.3-41.8-79.8-45.9-3-1.6-5.9-3.3-6.5-3.7-.5-.4-2.8-1.8-5-3-7.8-4.4-12.3-7-38.5-22-14.6-8.3-26.6-15.3-26.7-15.4-.2-.2 44.7-26.2 76.1-44 2.8-1.6 6.3-3.6 7.8-4.5 5.9-3.5 39.6-22.8 44.8-25.7 3-1.7 10.7-6.1 17-9.8 6.3-3.6 12-6.6 12.6-6.6.6 0 12.3 6.5 26 14.3zM344 381.2v91.3l-6.8 3.8c-3.7 2-8.5 4.8-10.7 6.1-3.7 2.1-57.2 32.8-64 36.6-1.6.9-16.7 9.6-33.5 19.2-16.8 9.7-32.1 18.4-34 19.5-1.9 1.1-5.1 3-7 4.1-1.9 1.2-3.8 2.2-4.1 2.2-.3 0-.5-41-.5-91.2l.1-91.1 4.5-2.7c6.9-4.1 58.8-33.9 65-37.3 3-1.6 6-3.3 6.5-3.7.6-.4 3-1.9 5.5-3.2 2.5-1.4 20.9-12 41-23.6 20.1-11.6 36.8-21.1 37.3-21.1.4-.1.7 41 .7 91.1zm17.2-88.7c2 1.4 3.9 2.5 4.2 2.5.3 0 6 3.2 12.8 7.2 6.8 3.9 14.1 8.1 16.3 9.4 2.2 1.2 9.6 5.5 16.5 9.4 6.9 4 14.3 8.2 16.5 9.4 7.7 4.3 85 48.9 87 50.3 2 1.3 2 2.5 2.1 92.4 0 69.8-.2 90.9-1.2 90.5-.6-.2-16.2-9.1-34.5-19.7-18.4-10.6-34.9-20.1-36.8-21.1-1.9-1.1-11.3-6.5-21-12-9.7-5.6-19.7-11.3-22.2-12.7-2.5-1.4-13.6-7.8-24.7-14.1l-20.1-11.5-.1-91.3c0-50.1.3-91.2.8-91.2.4 0 2.4 1.1 4.4 2.5zM37 305c7.4 4.3 15.3 8.8 17.5 10 2.2 1.2 8.5 4.8 14 8s12.3 7 15 8.5c2.8 1.6 19 10.8 36 20.5 17.1 9.7 33 18.8 35.5 20.2 2.5 1.4 7.2 4.1 10.4 6l6 3.5v91.2c.1 80-.1 91.1-1.4 90.6-.8-.4-20.1-11.3-43-24.3-22.8-13-42.4-24.2-43.5-24.8-1.1-.6-13.2-7.5-27-15.4-13.7-7.9-26.8-15.3-29-16.5-2.2-1.2-6.5-3.6-9.5-5.3l-5.5-3.1-.3-91.6-.2-91.7 5.7 3.3c3.2 1.8 11.9 6.7 19.3 10.9zm651 77.4v91.4l-5.7 3.3c-3.2 1.7-7.8 4.3-10.3 5.7-2.5 1.4-4.9 2.8-5.5 3.2-.5.4-3.5 2.1-6.5 3.7-3 1.7-19.7 11.1-37 21s-33.5 19.1-36 20.5c-2.5 1.4-7.2 4.1-10.5 6-3.3 2-8 4.7-10.5 6-2.5 1.4-11.7 6.6-20.5 11.7-8.8 5-16.2 9.1-16.5 9.1-.3 0-.5-41-.4-91.2v-91.2l79.5-45.3c43.7-24.9 79.5-45.3 79.7-45.3.1 0 .2 41.1.2 91.4z"/></svg>